<?xml version="1.0" standalone="no"?>
<!DOCTYPE svg PUBLIC "-//W3C//DTD SVG 1.1//EN" "http://www.w3.org/Graphics/SVG/1.1/DTD/svg11.dtd" >
<svg xmlns="http://www.w3.org/2000/svg">
<metadata>Generated by IcoMoon</metadata>
<defs>
<font id="icomoon" horiz-adv-x="1024">
<font-face units-per-em="1024" ascent="960" descent="-64" />
<missing-glyph horiz-adv-x="1024" />
<glyph unicode="&#x20;" horiz-adv-x="512" d="" />
<glyph unicode="&#xe900;" glyph-name="location-outline" d="M512 725.334c68.651 0 133.12-26.197 181.504-73.813 48.043-47.232 74.496-110.037 74.496-176.64s-26.453-129.28-74.453-176.597l-181.547-178.517-181.504 178.603c-48 47.232-74.453 109.909-74.453 176.597s26.453 129.365 74.453 176.683c48.427 47.488 112.939 73.685 181.504 73.685M512 810.667c-87.339 0-174.763-32.768-241.365-98.347-133.291-131.157-133.291-343.765 0-474.923l241.365-237.355 241.365 237.44c133.291 131.072 133.291 343.723 0 474.837-66.603 65.579-153.984 98.347-241.365 98.347zM512 576.043c28.501 0 55.296-11.093 75.435-31.189 41.643-41.643 41.643-109.312 0-150.912-20.181-20.139-46.933-31.189-75.435-31.189s-55.253 11.093-75.435 31.189c-41.643 41.643-41.643 109.312 0 150.912 20.181 20.096 46.976 31.189 75.435 31.189M512 618.71c-38.229 0-76.459-14.592-105.6-43.691-58.325-58.325-58.325-152.917 0-211.243 29.184-29.184 67.328-43.691 105.6-43.691s76.459 14.592 105.6 43.691c58.283 58.325 58.283 152.917 0 211.243-29.141 29.141-67.371 43.691-105.6 43.691z" />
<glyph unicode="&#xe901;" glyph-name="map-pin" d="M512 938.667c-234.667 0-426.667-192-426.667-426.667 0-315.733 388.267-580.267 401.067-588.8 8.533-4.267 17.067-8.533 25.6-8.533s17.067 4.267 25.6 8.533c12.8 8.533 401.067 273.067 401.067 588.8 0 234.667-192 426.667-426.667 426.667zM512 8.534c-81.067 59.733-341.333 273.067-341.333 503.467 0 187.733 153.6 341.333 341.333 341.333s341.333-153.6 341.333-341.333c0-230.4-260.267-443.733-341.333-503.467zM512 682.667c-93.867 0-170.667-76.8-170.667-170.667s76.8-170.667 170.667-170.667c93.867 0 170.667 76.8 170.667 170.667s-76.8 170.667-170.667 170.667zM512 426.667c-46.933 0-85.333 38.4-85.333 85.333s38.4 85.333 85.333 85.333c46.933 0 85.333-38.4 85.333-85.333s-38.4-85.333-85.333-85.333z" />
<glyph unicode="&#xe902;" glyph-name="blog" d="M41.472 683.008h130.56c70.656 0 110.592-41.472 110.592-97.792 0-37.376-22.528-67.584-52.736-77.824 35.328-8.704 64-40.96 64-86.016 0-58.88-44.032-101.376-112.128-101.376h-140.288v363.008zM111.104 532.992h50.176c32.256 0 51.712 17.92 51.712 45.568s-17.92 45.056-52.224 45.056h-49.664v-90.624zM111.104 378.88h57.344c34.304 0 54.784 17.92 54.784 47.104 0 28.672-18.432 48.64-53.76 48.64h-58.368v-95.744zM400.128 320h-68.096v370.688h68.096v-370.688zM569.344 374.272c33.28 0 64 24.064 64 71.68s-30.72 71.68-64 71.68c-33.28 0-64-24.064-64-71.68 0-47.104 30.72-71.68 64-71.68zM569.344 579.584c75.264 0 132.096-55.808 132.096-133.632 0-77.312-56.832-133.632-132.096-133.632s-132.096 56.32-132.096 133.632c0 77.824 56.832 133.632 132.096 133.632zM720.64 306.176l61.44 16.384c4.608-27.648 26.624-47.616 58.88-47.616 43.008 0 67.072 21.504 67.072 70.144v18.432c-10.24-16.384-33.792-32.256-70.144-32.256-67.072 0-117.248 51.712-117.248 122.368 0 66.56 48.128 122.88 117.248 122.88 39.936 0 62.976-17.408 71.68-34.304v29.696h65.536v-224.768c0-69.12-37.376-132.096-132.096-132.096-69.12 0-115.2 43.008-122.368 91.136zM849.664 389.632c34.816 0 59.392 25.088 59.392 64s-26.624 63.488-59.392 63.488c-33.792 0-60.416-24.576-60.416-63.488 0-39.424 25.088-64 60.416-64z" />
<glyph unicode="&#xe903;" glyph-name="Adult_meetings" d="M885.868 850.641c6.481 7.342 10.095 16.947 10.13 26.926 0.106 10.509-3.823 20.625-10.912 28.095s-16.749 11.673-26.827 11.672h-692.409c-8.641-0.119-17.009-3.173-23.835-8.699-16.147-13.751-18.713-38.474-5.76-55.508l337.664-434.951v-403.883h-184.92c-20.733 0-37.54-17.526-37.54-39.146s16.807-39.146 37.54-39.146h446.113c20.733 0 37.54 17.526 37.54 39.146s-16.807 39.146-37.54 39.146h-185.715v404.298l336.472 432.052zM543.239 531.469c-32.909 0-59.588 27.819-59.588 62.136s26.678 62.136 59.588 62.136c32.909 0 59.588-27.819 59.588-62.136-0.532-34.084-26.901-61.582-59.588-62.136zM245.499 838.835h533.111l-76.272-99.417h-380.964l-75.875 99.417z" />
<glyph unicode="&#xe904;" glyph-name="Area_Vip" d="M944.266 557.577c-23.007 53.827-54.961 101.247-95.863 142.258s-89.472 73.051-141.877 96.12c-37.067 15.379-75.412 25.632-113.757 32.040-2.556 46.138-44.736 55.109-44.736 55.109v76.896h-31.954v-76.896c0 0-39.623-8.971-42.18-55.109-39.623-5.126-77.969-15.379-115.036-32.040-53.683-23.069-100.976-55.109-141.877-96.12s-72.856-89.712-95.863-142.258c-23.007-55.109-35.789-114.063-35.789-174.298s11.504-119.189 35.789-174.298c23.007-53.827 54.961-101.247 95.863-142.258s89.472-73.051 141.877-96.12c46.014-19.224 109.923-33.322 182.779-34.603 76.69 0 120.148 15.379 164.884 34.603 48.571 20.506 92.029 48.701 130.374 84.586h1.278v1.282c3.835 3.845 7.669 7.69 11.504 11.534 40.902 41.011 72.856 89.712 95.863 142.258 23.007 55.109 35.789 114.063 35.789 174.298s-12.782 117.907-37.067 173.016zM779.382 710.088h-35.789c-11.504 16.661-25.563 32.040-38.345 44.856 25.563-12.816 51.127-26.914 74.134-44.856zM770.435 572.956h-117.592c-3.835 35.885-10.225 67.925-16.616 98.683h86.916c19.173-29.477 35.789-62.798 47.292-98.683zM693.744 710.088h-67.743c-7.669 28.195-16.616 51.264-25.563 69.207 33.233-12.816 65.187-35.885 93.307-69.207zM586.378 710.088h-97.141c33.233 121.752 47.292 119.189 97.141 0zM617.054 534.508c3.835-39.73 6.391-82.023 6.391-125.597h-172.553c1.278 43.574 2.556 85.867 6.391 125.597h159.772zM624.723 370.463c0-39.73-1.278-78.178-5.113-115.344h-163.606c-2.556 37.166-5.113 75.615-5.113 115.344h173.832zM532.694 857.472c16.616-2.563 29.398-15.379 33.233-28.195-11.504 1.282-21.729 1.282-33.233 1.282-10.225 0-19.173 0-28.12-1.282 1.278 15.379 10.225 28.195 28.12 28.195zM477.733 781.857c-10.225-19.224-19.173-42.293-28.12-71.77h-75.412c30.676 35.885 66.465 60.235 103.532 71.77zM420.215 216.671c5.113-44.856 11.504-85.867 19.173-123.034h-94.585c-24.285 35.885-42.18 78.178-54.961 123.034h130.374zM266.834 408.911c1.278 43.574 7.669 85.867 19.173 125.597h132.93c-3.835-39.73-6.391-82.023-6.391-125.597h-145.712zM422.771 572.956h-126.539c12.782 35.885 28.12 69.207 47.292 98.683h95.863c-6.391-29.477-12.782-62.798-16.616-98.683zM366.532 757.507c-14.060-14.098-28.12-29.477-40.902-47.419h-38.345c24.285 17.942 49.849 34.603 79.247 47.419zM242.549 671.64h57.518c-17.894-29.477-31.954-62.798-43.458-98.683h-85.638c19.173 37.166 43.458 69.207 71.578 98.683zM153.077 534.508h93.307c-10.225-39.73-16.616-82.023-17.894-125.597h-103.532c2.556 43.574 12.782 87.149 28.12 125.597zM123.679 370.463h103.532c1.278-39.73 5.113-78.178 12.782-115.344h-95.863c-11.504 35.885-19.173 74.333-20.451 115.344zM159.467 216.671h89.472c0-2.563 1.278-3.845 1.278-6.408 11.504-42.293 28.12-82.023 48.571-116.626h-54.961c-34.511 34.603-63.909 75.615-84.359 123.034zM289.841 53.907h35.789c11.504-15.379 24.285-30.758 37.067-43.574-26.842 12.816-51.127 26.914-72.856 43.574zM374.201 53.907h75.412c8.947-29.477 17.894-53.827 28.12-73.051-37.067 12.816-72.856 37.166-103.532 73.051zM489.236 53.907h97.141c-40.902-116.626-44.736-114.063-97.141 0zM479.011 92.355c-8.947 37.166-15.338 78.178-20.451 123.034h157.215c-5.113-44.856-11.504-87.149-20.451-123.034h-116.314zM600.437-15.299c10.225 17.942 17.894 41.011 26.842 69.207h67.743c-29.398-32.040-61.352-56.39-94.585-69.207zM709.082 12.896c11.504 12.816 23.007 25.632 34.511 41.011h33.233c-21.729-15.379-43.458-29.477-67.743-41.011zM724.42 92.355h-88.194c7.669 37.166 14.060 78.178 19.173 123.034h123.983c-12.782-44.856-31.954-87.149-54.961-123.034zM789.607 255.119h-130.374c2.556 37.166 5.113 115.344 5.113 115.344h138.043c-1.278-39.73-5.113-78.178-12.782-115.344zM663.068 408.911c-1.278 43.574-2.556 85.867-6.391 125.597h126.539c10.225-39.73 16.616-82.023 19.173-125.597h-139.321zM767.878 671.64h54.961c28.12-29.477 52.405-61.517 71.578-98.683h-83.081c-11.504 35.885-25.563 67.925-43.458 98.683zM912.312 534.508c15.338-39.73 25.563-82.023 28.12-125.597h-100.976c-1.278 43.574-7.669 85.867-17.894 125.597h90.75zM921.259 255.119h-93.307c7.669 37.166 11.504 75.615 12.782 115.344h100.976c-1.278-39.73-7.669-79.459-20.451-115.344zM756.622 768l19.911 68.031 76.8 28.724-71.111 25.701-25.6 69.543-24.178-69.543-71.111-25.701 76.8-28.724z" />
<glyph unicode="&#xe905;" glyph-name="Escorts" d="M886.54 533.235c-120.316 129.739-201.711 161.602-236.771 169.377-10.608 2.273-21.635 1.747-31.971-1.525l-73.209-23.021c-21.161-6.586-43.862-6.586-65.023 0l-73.055 23.021c-10.395 3.243-21.464 3.768-32.125 1.525-34.597-7.775-116.455-39.638-236.617-169.377-43.324-43.428-89.335-84.161-137.769-121.964 0 0 16.681-21.953 161.4-173.036 97.303-101.535 222.098-114.951 293.454-112.817 38.098 1.118 76.144 1.118 114.138 0 71.51-2.134 196.46 11.282 293.454 112.817 144.874 151.083 161.554 173.036 161.554 173.036-48.365 37.77-94.275 78.505-137.46 121.964zM512.154 324.067c-35.060 13.111-187.811 69.214-280.48 75.008 72.128 12.959 156.921 103.517 156.921 103.517 33.361-23.63 123.56-49.853 123.56-49.853s99.157 28.509 123.56 49.853c0 0 84.638-90.101 155.84-103.364-94.678-5.793-247.891-61.897-279.399-75.16z" />
<glyph unicode="&#xe906;" glyph-name="Friends" d="M1007.816 405.117c-51.35 74.066-116.012 170.883-210.724 170.883-48.18 0-104.982-35.39-157.092-88.475 6.468-4.769 12.61-9.962 18.384-15.546 43.655-43.947 83.325-91.657 118.548-142.571 11.403-15.77 19.982-33.388 25.358-52.074 189.17 1.138 255.861 55.234 205.526 127.783zM853.333 682.667c0-35.346-28.654-64-64-64s-64 28.654-64 64c0 35.346 28.654 64 64 64s64-28.654 64-64zM426.667 487.637c-44.223 47.968-97.347 88.363-163.682 88.363-82.189-0.631-185.377-84.45-258.804-187.961-9.596-13.633-25.449-107.298 243.785-110.706 5.853 18.639 15.267 36.2 27.813 51.882 38.439 50.649 81.717 98.128 129.333 141.886 6.727 5.987 13.931 11.514 21.555 16.536zM298.667 682.667c0-35.346-28.654-64-64-64s-64 28.654-64 64c0 35.346 28.654 64 64 64s64-28.654 64-64zM495.714 547.889c12.076-9.263 27.194-14.4 42.841-14.556 14.754 0.016 29.093 4.549 40.807 12.899 31.654-4.97 68.647 1.302 59.112 3.432s-21.102 26.864-31.908 51.834c-1.452 24.566-18.060 46.124-42.589 55.283s-52.537 4.261-71.822-12.562c-12.234-10.426-19.963-24.648-21.738-39.999-15.763-26.035-34.323-52.070-42.713-54.437s35.976-9.704 68.011-1.893zM627.283 449.479c-5.608 5.756-45.534 42.76-93.471 41.116-47.403 1.919-87.462-35.086-93.471-41.116-43.987-45.61-83.936-95.144-119.375-148.017-56.349-83.602-11.884-152.129 202.297-152.129h20.163c213.647 0 258.647 68.526 202.431 152.129-35.169 52.851-74.85 102.385-118.574 148.017z" />
<glyph unicode="&#xe907;" glyph-name="Gay_escorts" d="M1016.426 564.386c18.534 73.504 2.642 151.458-43.182 211.813s-116.597 96.547-192.301 98.34c-78.176 2.258-154.264-25.441-212.731-77.443-40.778-37.68-77.565-79.47-109.778-124.707-27.871-35.874-55.742-71.939-85.32-106.295-21.565-24.946-50.416-42.476-82.476-50.11-37.27-10.497-77.315-1.789-106.876 23.241s-44.786 63.118-40.632 101.655c3.374 35.806 23.445 67.913 54.138 86.604s68.401 21.769 101.713 8.302c27.404-12.766 52.018-30.828 72.427-53.147 5.119-4.935 9.859-10.44 15.358-16.134l76.977 89.401c-22.644 25.942-48.078 49.303-75.84 69.661-78.303 59.858-185.355 65.217-269.231 13.477-88.98-55.023-134.361-159.668-113.76-262.32 18.687-99.794 96.998-177.664 196.804-195.696l8.911-1.329v-175.956l-94.8 94.906-66.929-68.143 208.559-208.793 1.706 1.708 1.896-1.708 208.559 208.793-67.497 67.573-95.748-94.906v176.335c55.39 9.704 107.101 34.309 149.594 71.18 32.276 30.278 61.723 63.443 87.974 99.082 37.92 44.416 73.565 89.781 111.295 132.868 18.849 22.879 43.752 39.982 71.858 49.351 38.893 13.952 82.266 6.076 113.785-20.664s46.398-68.28 39.032-108.978c-4.368-32.495-22.764-61.432-50.319-79.153s-61.492-22.439-92.828-12.906c-24.464 8.17-46.717 21.874-65.033 40.050-12.893 11.768-24.269 25.245-37.92 37.962l-75.84-94.906c21.614-18.981 41.901-40.24 63.705-58.272 32.492-28.129 71.668-47.413 113.76-55.995v-176.335l-94.8 94.906-67.497-67.573 208.559-208.793 1.896 1.708 1.706-1.708 208.559 208.793-67.497 67.573-94.8-94.906v178.234c91.725 20.424 163.609 91.724 184.859 183.358z" />
<glyph unicode="&#xe908;" glyph-name="Lesbians" d="M1007.802 554.248c18.24 71.508 2.86 147.431-41.772 206.203s-113.638 93.97-187.418 95.598c-76.050 2.553-150.194-24.094-207.22-74.473-39.789-36.582-75.667-77.202-107.055-121.204-27.183-35.002-54.365-70.004-83.223-103.517-20.883-24.376-48.991-41.462-80.244-48.78-36.287-10.226-75.283-1.779-104.085 22.547s-43.656 61.358-39.647 98.844c2.73 35.158 22.146 66.877 52.215 85.302s67.145 21.321 99.71 7.789c26.708-12.833 50.672-30.727 70.563-52.689 4.841-4.841 9.681-10.054 14.895-15.639l74.473 86.947c-22.222 25.294-47.201 48.025-74.473 67.77-76.169 57.573-179.833 62.598-261.213 12.66-86.446-53.705-130.341-155.532-110.033-255.255 17.984-96.906 93.895-172.669 190.836-190.464l5.585-0.931v-134.423h-130.327v-93.091h130.327v-121.018h93.091v121.018h130.327v93.091h-130.327v133.306c55.127 9.007 106.682 33.109 148.945 69.632 31.524 29.406 60.372 61.555 86.202 96.070 36.119 43.38 71.494 87.505 108.358 130.327 18.361 22.059 42.554 38.511 69.818 47.476 37.906 13.518 80.144 5.822 110.846-20.198s45.22-66.424 38.1-106.034c-4.547-31.472-22.599-59.395-49.431-76.46s-59.774-21.575-90.206-12.349c-23.644 7.468-45.287 20.199-63.302 37.236-12.474 11.543-23.645 24.576-37.236 37.236l-74.473-93.091c21.039-19.549 40.774-39.098 61.999-56.785 30.961-26.636 68.076-45.13 107.985-53.807v-134.982h-130.327v-93.091h130.327v-121.018h93.091v121.018h130.327v93.091h-130.327v137.588c91.11 18.273 163.159 88.065 184.32 178.548z" />
<glyph unicode="&#xe909;" glyph-name="Male_escorts" d="M1005.002 391.143c-12.648 40.191-42.74 80.491-77.819 72.57 23.164-10.15 23.559-49.213 18.019-78.127-3.283-17.161-7.435-34.824-17.049-48.099-18.154-25.069-51.981-26.713-76.070-10.421-24.089 16.278-39.648 46.414-49.487 77.502-9.839 31.074-14.961 64.050-24.157 95.424-18.685 63.792-56.336 121.742-108.125 147.952-57.227 28.941-128.141 10.123-162.588-48.262-34.447 58.385-105.36 77.203-162.588 48.262-51.789-26.196-89.44-84.16-108.125-147.966-9.184-31.373-14.318-64.336-24.157-95.424-9.839-31.074-25.398-61.211-49.487-77.502-24.089-16.278-57.904-14.634-76.070 10.421-9.613 13.275-13.765 30.925-17.049 48.099-5.54 28.914-5.145 67.977 18.019 78.127-35.079 7.908-65.159-32.392-77.807-72.57-7.785-24.729-12.152-51.428-9.85-77.719 4.445-50.939 34.018-95.396 70.959-120.791s80.414-33.805 122.939-34.417c92.34-1.318 187.117 34.77 253.461 112.122 24.856 28.982 45.38 64.743 59.766 103.753 14.386-39.009 34.91-74.771 59.766-103.753 66.333-77.352 161.121-113.427 253.461-112.122 42.526 0.611 85.999 9.022 122.939 34.417s66.502 69.852 70.959 120.791c2.279 26.319-2.087 53.004-9.861 77.733z" />
<glyph unicode="&#xe90a;" glyph-name="Massages" d="M1021.523 90.921c-6.937 30.39-38.813 46.906-75.974 38.813l-106.364-23.288c-9.414-2.147-16.516-2.973-22.957 8.093-28.903 49.548-60.119 97.941-88.361 148.645-20.344 41.8-65.022 66.031-111.154 60.284-90.839-7.432-181.677-16.516-272.351-25.27-105.868-9.91-142.369-19.819-247.742-29.894-49.548-4.79-68.872-8.423-68.872-8.423-16.516-1.817-24.114-18.168-25.93-34.519-1.817-8.588-1.817-16.351-1.817-25.105 0-3.303 0-6.606 0-9.91 0.991-44.594 11.892-82.581 56.815-82.581 247.742 0 343.866 0 591.938 0 12.312 0.893 23.983-5.591 29.729-16.516l59.954-72.671c23.948-29.729 39.639-44.924 82.581-35.51l148.645 33.032c39.969 9.249 60.284 38.317 51.861 74.818zM198.194 327.102c54.008 4.625 107.85 10.405 161.858 14.039 5.691-0.501 11.343 1.323 15.668 5.057s6.954 9.059 7.289 14.762c9.249 40.134 19.654 80.103 30.39 123.706 15.36-22.957 29.068-41.951 41.29-62.101 9.824-17.62 27.16-29.786 47.071-33.032 41.455-7.597 82.581-16.516 124.201-24.609 38.813-7.763 67.881 9.91 74.983 45.089 6.441 32.041-15.525 61.44-52.356 69.037-29.068 6.111-58.467 10.735-87.205 17.837-10.375 2.584-19.676 8.361-26.591 16.516-24.036 30.609-46.102 62.715-66.065 96.124-24.939 44.263-64.248 64.578-109.832 77.461-26.273 9.144-55.246 6.2-79.143-8.042s-40.271-38.325-44.728-65.785c-13.543-57.476-26.536-115.172-38.978-173.089-8.423-37.161-16.516-74.488-24.774-113.135 10.405 0 18.828-0.661 26.921 0.165zM906.405 176.31c31.211-0.266 61.227 11.993 83.328 34.032s34.445 52.020 34.267 83.232c0 64.672-52.427 117.099-117.099 117.099s-117.099-52.427-117.099-117.099c0.089-64.469 52.136-116.811 116.604-117.265zM436.191 709.45c47.451 0.205 90.088 29.025 107.966 72.98s7.462 94.354-26.375 127.621c-33.837 33.267-84.406 42.825-128.050 24.203s-71.737-61.743-71.135-109.19c0.726-64.323 53.269-115.98 117.595-115.613z" />
<glyph unicode="&#xe90b;" glyph-name="Soulmate" d="M509.295 789.333c5.119 3.37 11.303 5.267 17.702 5.43 6.386-0.222 12.551-2.113 17.702-5.43l163.739-104.262c11.972-7.74 14.58-22.495 5.842-33.047l-47.086-62.992c120.579-41.268 209.241-133.098 235.731-244.153s-12.771-226.327-104.386-306.48c-149.919-131.445-393.026-131.48-542.994-0.078s-150.008 344.482-0.089 475.927c37.333 32.524 81.764 58.117 130.637 75.248l-47.794 63.612c-7.815 10.746-4.709 24.969 7.081 32.427l163.916 103.796zM703.612 458.085c-86.622 86.583-222.335 99.938-324.172 31.9s-141.448-198.527-94.617-311.694c46.831-113.167 167.067-177.508 287.203-153.688s206.726 129.169 206.836 251.644c0.216 68.231-26.881 133.711-75.248 181.838zM496.485 936.572c0.165 12.81 10.464 23.178 23.273 23.428 13.005-0.152 23.628-10.434 24.204-23.428v-66.405c-0.33-13.203-10.999-23.803-24.204-24.048-13.013 0.338-23.362 11.031-23.273 24.048v66.405zM719.748 866.909c5.975 6.513 15.042 9.224 23.611 7.059s15.261-8.856 17.426-17.426c2.165-8.57-0.546-17.636-7.059-23.611l-46.545-46.545c-4.376-4.454-10.358-6.963-16.601-6.963s-12.225 2.509-16.601 6.963c-4.756 4.239-7.477 10.307-7.477 16.679s2.72 12.44 7.477 16.679l46.545 46.545-0.776 0.621zM288.427 826.259c-4.618 4.446-7.227 10.579-7.227 16.989s2.609 12.543 7.227 16.989c4.239 4.756 10.307 7.477 16.679 7.477s12.44-2.72 16.679-7.477l46.545-46.545c8.965-9.312 8.965-24.045 0-33.358-4.376-4.742-10.536-7.44-16.989-7.44s-12.613 2.697-16.989 7.44l-45.925 45.925z" />
<glyph unicode="&#xe90c;" glyph-name="Swingers" d="M932.464 405.166c43.372 92.822 105.658 196.907 88.671 384.105-3.253 1.942-27.589-41.945-30.119-45.246-21.518-29.858-45.475-54.817-71.202-74.18-66.503-49.518-123.73 18.060-191.076 16.894-56.226-3.479-111.157-28.224-160.355-72.238-35.177-30.696-77.59-30.696-112.766 0-49.198 44.014-104.128 68.76-160.355 72.238-67.347 1.165-124.573-66.412-191.076-16.894-25.727 19.363-49.684 44.322-71.202 74.18-2.53 3.301-26.866 47.188-30.119 45.246-16.987-187.198 45.299-291.283 88.671-384.105l-34.456 23.108c-1.566-6.602 28.071-267.009 163.487-313.809 73.25-25.245 128.308 15.535 219.75 65.442 46.269 27.478 97.099 27.478 143.367 0 90.96-50.877 146.5-90.686 219.75-65.442 135.416 46.799 165.053 307.206 163.487 313.809l-34.456-23.108zM202.254 482.841c88.55 72.821 200.955-10.486 238.183-126.611-81.563-87.385-222.762-42.721-238.183 126.028v0.583zM583.563 356.23c37.227 116.513 149.632 199.432 238.183 126.611-15.421-169.332-156.62-213.996-238.183-127.194v0.583z" />
<glyph unicode="&#xe90d;" glyph-name="Transexual" d="M956.571 266.063c-98.343 28.981-145.099 48.302-167.318 49.461-167.704-94.092-217.165 15.070-267.979 96.604-32.652 53.518-250.783 356.468-343.716 434.717l-25.89 27.822c0 0-246.34-86.75-111.094-368.254 0 0 41.733-142.201 48.495-484.565 27.179-9.289 56.673-9.289 83.852 0 0 0-24.731 355.309-17.002 419.26 0 0-1.352 74.385 61.054 16.616 0 0 137.177-125.198 182.581-229.724s70.521-185.479 147.611-199.39c77.090-13.911 357.627-17.389 398.78 42.699 43.278 63.372 108.776 164.806 10.626 194.753z" />
<glyph unicode="&#xe90e;" glyph-name="whatsapp" d="M1023.98 478.958c-1.261-132.105-35.505-235.455-106.724-325.261-76.472-96.474-176.053-157.734-297.904-182.53-94.119-18.961-185.717-10.627-275.634 21.67-19.958 7.293-39.496 15.836-58.194 26.046-5.672 3.126-10.504 3.542-16.807 1.459-85.085-27.296-170.381-54.384-255.676-81.263-3.782-1.25-8.824-4.792-11.765-2.084-3.361 3.334 0.84 8.335 2.101 12.294 17.017 50.217 34.034 100.641 51.261 150.858 10.504 30.63 20.589 61.052 31.513 91.473 2.941 7.918 1.891 13.961-2.521 21.253-21.639 36.673-37.606 75.846-48.95 116.894-21.219 77.096-23.53 155.025-6.933 232.955 18.067 85.014 55.883 160.86 114.077 226.287 70.379 79.18 157.145 131.48 260.298 156.692 65.757 16.044 132.145 18.545 198.953 7.71 87.396-14.169 166.179-48.55 234.877-103.975 71.43-57.718 123.531-129.396 156.305-215.452 18.067-46.466 32.353-122.52 31.723-155.025v-0.001zM269.48 564.771c-0.22-15.757 5.29-35.403 12.784-54.639 13.005-36.221 36.369-66.712 58.852-97.818 29.316-40.314 63.922-76.33 103.157-108.663 49.374-40.519 108.226-64.666 169.283-85.13 29.095-9.823 58.411-17.19 90.152-10.437 65.465 13.915 102.716 45.43 104.7 105.799 0.22 7.367-2.204 12.688-9.037 16.167-37.031 19.031-73.4 38.677-112.194 54.229-13.005 5.321-18.956 3.479-27.553-7.162-13.005-16.167-28.434-30.287-42.541-45.635-7.715-8.186-16.752-9.209-26.891-4.911-2.645 1.228-5.29 2.66-7.935 3.684-76.045 31.924-132.032 83.697-171.928 151.024-6.833 11.46-5.511 16.78 4.408 26.194 9.698 9.209 19.617 18.418 27.773 28.854 7.053 8.799 15.429 18.418 10.58 30.696-14.327 35.812-28.655 71.419-43.423 107.026-4.188 10.027-12.564 15.553-24.907 14.939-6.613-0.409-13.225 0.205-19.838 1.023-15.65 2.046-29.536-2.046-40.778-11.46-35.047-28.854-53.562-65.075-54.664-113.779v-0.001z" />
<glyph unicode="&#xe90f;" glyph-name="TOP_WHITE" d="M0 498.683l82.519 17.588c0 0 12.206-281.603 387.111-281.603 0.076 0.006-0.558 13.247-0.401 13.412-30.385 0-261.762 28.53-261.762 261.726l81.397-33.013-133.336 226.757-155.528-204.867zM675.331 458.665c0 27.818-5.538 49.471-16.616 64.963-11.078 15.488-25.966 23.234-44.655 23.234-12.060 0-22.687-3.457-31.878-10.369-9.194-6.915-16.277-17.114-21.251-30.608-4.974-13.488-7.463-29.23-7.463-47.22 0-17.824 2.448-33.397 7.348-46.721 4.898-13.327 11.907-23.53 21.027-30.605 9.118-7.084 19.859-10.623 32.218-10.623 18.689 0 33.577 7.785 44.655 23.361s16.616 37.105 16.616 64.588zM737.28 458.665c0-20.323-2.866-39.063-8.592-56.217-5.726-17.156-14.015-31.898-24.869-44.222-10.851-12.327-23.817-21.78-38.888-28.359-15.074-6.576-32.032-9.867-50.871-9.867-18.689 0-35.497 3.333-50.417 9.991-14.921 6.661-27.848 16.198-38.775 28.61-10.931 12.406-19.217 27.066-24.869 43.971s-8.478 35.606-8.478 56.093c0 20.653 2.861 39.559 8.59 56.718 5.726 17.15 13.939 31.81 24.642 43.971 10.704 12.158 23.663 21.526 38.89 28.108 15.221 6.579 32.026 9.87 50.417 9.87 18.689 0 35.644-3.333 50.871-9.994 15.224-6.664 28.263-16.159 39.115-28.483 10.851-12.33 19.105-26.984 24.757-43.974s8.478-35.73 8.478-56.217zM960.895 457.327c0 18.326-2.535 34.066-7.603 47.22-5.068 13.147-12.091 23.25-21.073 30.291-8.985 7.042-18.928 10.564-29.83 10.564-17.354 0-31.98-7.553-43.876-22.655-11.902-15.106-17.85-37.336-17.85-66.695 0-27.662 5.909-49.172 17.733-64.53s26.489-23.037 43.993-23.037c10.442 0 20.115 3.35 29.022 10.056 8.904 6.703 16.044 16.756 21.421 30.165 5.374 13.403 8.063 29.611 8.063 48.621zM837.668 558.387v-8.403c11.821 16.125 24.104 27.961 36.85 35.51 12.743 7.553 27.18 11.331 43.303 11.331 19.349 0 37.159-5.518 53.438-16.547 16.276-11.032 29.136-27.154 38.578-48.365 9.447-21.217 14.164-46.33 14.164-75.35 0-21.384-2.722-41.028-8.171-58.932-5.455-17.904-12.941-32.924-22.461-45.055-9.522-12.134-20.767-21.47-33.741-28.001-12.977-6.531-26.913-9.801-41.806-9.801-17.964 0-33.050 3.99-45.258 11.965s-23.842 19.684-34.894 35.128v-60.050c0-30.547-10.060-45.819-30.175-45.819-11.827 0-19.658 3.944-23.494 11.836-3.839 7.892-5.759 19.392-5.759 34.494v255.546c0 13.24 2.61 23.123 7.831 29.657 5.218 6.531 12.361 9.801 21.421 9.801 8.904 0 16.159-3.353 21.767-10.053 5.605-6.709 8.408-16.337 8.408-28.893zM425.938 552.881v-203.539c0-11.724-2.471-20.42-7.412-26.087-4.945-5.667-11.331-8.504-19.166-8.504-7.954 0-14.435 2.865-19.436 8.6-5.003 5.735-7.505 14.398-7.505 25.991v203.539h-58.579c-9.162 0-15.973 2.131-20.431 6.401-4.461 4.268-6.689 9.907-6.689 16.914 0 7.262 2.319 12.994 6.961 17.2 4.638 4.205 11.36 6.308 20.159 6.308h170.679c9.28 0 16.181-2.168 20.701-6.5s6.779-10.003 6.779-17.008c0-7.007-2.29-12.646-6.87-16.914-4.58-4.271-11.453-6.401-20.611-6.401h-58.581z" />
<glyph unicode="&#xe910;" glyph-name="TOP" d="M0 498.683l82.519 17.588c0 0 12.206-281.603 387.111-281.603 0.076 0.006-0.558 13.247-0.401 13.412-30.385 0-261.762 28.53-261.762 261.726l81.397-33.013-133.336 226.757-155.528-204.867zM675.331 458.665c0 27.818-5.538 49.471-16.616 64.963-11.078 15.488-25.966 23.234-44.655 23.234-12.060 0-22.687-3.457-31.878-10.369-9.194-6.915-16.277-17.114-21.251-30.608-4.974-13.488-7.463-29.23-7.463-47.22 0-17.824 2.448-33.397 7.348-46.721 4.898-13.327 11.907-23.53 21.027-30.605 9.118-7.084 19.859-10.623 32.218-10.623 18.689 0 33.577 7.785 44.655 23.361s16.616 37.105 16.616 64.588zM737.28 458.665c0-20.323-2.866-39.063-8.592-56.217-5.726-17.156-14.015-31.898-24.869-44.222-10.851-12.327-23.817-21.78-38.888-28.359-15.074-6.576-32.032-9.867-50.871-9.867-18.689 0-35.497 3.333-50.417 9.991-14.921 6.661-27.848 16.198-38.775 28.61-10.931 12.406-19.217 27.066-24.869 43.971s-8.478 35.606-8.478 56.093c0 20.653 2.861 39.559 8.59 56.718 5.726 17.15 13.939 31.81 24.642 43.971 10.704 12.158 23.663 21.526 38.89 28.108 15.221 6.579 32.026 9.87 50.417 9.87 18.689 0 35.644-3.333 50.871-9.994 15.224-6.664 28.263-16.159 39.115-28.483 10.851-12.33 19.105-26.984 24.757-43.974s8.478-35.73 8.478-56.217zM960.895 457.327c0 18.326-2.535 34.066-7.603 47.22-5.068 13.147-12.091 23.25-21.073 30.291-8.985 7.042-18.928 10.564-29.83 10.564-17.354 0-31.98-7.553-43.876-22.655-11.902-15.106-17.85-37.336-17.85-66.695 0-27.662 5.909-49.172 17.733-64.53s26.489-23.037 43.993-23.037c10.442 0 20.115 3.35 29.022 10.056 8.904 6.703 16.044 16.756 21.421 30.165 5.374 13.403 8.063 29.611 8.063 48.621zM837.668 558.387v-8.403c11.821 16.125 24.104 27.961 36.85 35.51 12.743 7.553 27.18 11.331 43.303 11.331 19.349 0 37.159-5.518 53.438-16.547 16.276-11.032 29.136-27.154 38.578-48.365 9.447-21.217 14.164-46.33 14.164-75.35 0-21.384-2.722-41.028-8.171-58.932-5.455-17.904-12.941-32.924-22.461-45.055-9.522-12.134-20.767-21.47-33.741-28.001-12.977-6.531-26.913-9.801-41.806-9.801-17.964 0-33.050 3.99-45.258 11.965s-23.842 19.684-34.894 35.128v-60.050c0-30.547-10.060-45.819-30.175-45.819-11.827 0-19.658 3.944-23.494 11.836-3.839 7.892-5.759 19.392-5.759 34.494v255.546c0 13.24 2.61 23.123 7.831 29.657 5.218 6.531 12.361 9.801 21.421 9.801 8.904 0 16.159-3.353 21.767-10.053 5.605-6.709 8.408-16.337 8.408-28.893zM425.938 552.881v-203.539c0-11.724-2.471-20.42-7.412-26.087-4.945-5.667-11.331-8.504-19.166-8.504-7.954 0-14.435 2.865-19.436 8.6-5.003 5.735-7.505 14.398-7.505 25.991v203.539h-58.579c-9.162 0-15.973 2.131-20.431 6.401-4.461 4.268-6.689 9.907-6.689 16.914 0 7.262 2.319 12.994 6.961 17.2 4.638 4.205 11.36 6.308 20.159 6.308h170.679c9.28 0 16.181-2.168 20.701-6.5s6.779-10.003 6.779-17.008c0-7.007-2.29-12.646-6.87-16.914-4.58-4.271-11.453-6.401-20.611-6.401h-58.581z" />
<glyph unicode="&#xe911;" glyph-name="skokka" d="M775.117 517.818c-81.591 0-185.515-91.563-258.866-204.652-9.864-15.191-26.397-121.166 258.866-121.166 211.902 0 286.856 59.48 231.11 139.343-56.389 80.774-127.288 186.475-231.11 186.475zM837.818 634.187c0 38.56-31.283 69.813-69.823 69.813-38.57 0-69.813-31.253-69.813-69.813s31.243-69.823 69.813-69.823c38.54 0 69.823 31.263 69.823 69.823zM167.982 580.311c12.887-9.811 29.133-15.948 47.074-15.948 16.761 0 32.073 5.336 44.563 14.036 34.616-5.406 74.962 1.412 64.522 3.844-10.999 2.563-23.006 29.353-34.756 56.683-1.202 16.168-8.134 30.764-19.132 42.047-13.692 14.046-33.253 23.026-55.197 23.026-19.368 0-36.87-7.048-50.154-18.321l-0.064 0.050c-0.032-0.050-0.064-0.11-0.064-0.14-13.080-11.142-21.675-26.47-23.725-43.769-17.222-28.572-37.427-57.014-46.699-59.577-9.7-2.663 38.715-10.572 73.632-1.932zM438.638 340.017c-55.901 78.73-109.058 129.909-117.148 137.781-5.478 5.347-44.733 39.863-91.238 37.999-46.495 1.864-85.75-32.652-91.238-37.999-8.080-7.872-61.237-59.050-117.148-137.781-55.273-77.843-11.644-141.717 198.463-141.717 1.6 0 8.353 0 9.923 0.010 1.58-0.010 8.333-0.010 9.923-0.010 210.107 0 253.736 63.874 198.463 141.717z" />
<glyph unicode="&#xe912;" glyph-name="phone" d="M234.717 923.020v0zM234.717 922.765v0zM234.717 923.020l150.942-194.524 1.975-2.803c6.945-9.748 12.233-20.134 15.355-31.284 3.058-12.297 3.632-25.168 1.657-38.548-1.657-12.871-5.543-25.168-12.297-36.127l-1.657-2.485c-6.18-9.812-14.527-18.414-24.594-25.168l-2.23-2.23-73.273-53.075c-4.715-10.895-10.322-34.152 9.812-62.887 32.176-46.703 68.43-89.775 108.189-129.151v0c39.95-40.013 82.703-76.268 129.088-108.189 29.118-20.070 52.565-14.463 62.887-10.067l55.050 75.439h-0.255c8.092 10.959 17.585 19.624 28.226 26.315 10.895 6.754 23.511 10.895 36.318 12.871h1.402c12.552 1.657 25.486 0.51 37.21-2.23l2.23-0.573c11.15-3.313 21.791-8.92 31.858-16.757l194.524-150.687 2.803-3.058c10.067-8.347 17.904-17.585 23.447-28.799 6.18-12.552 9.812-25.932 10.322-39.95 0.637-14.209-1.402-27.971-6.69-40.523v-0.255c-5.034-12.871-13.125-24.084-23.702-33.833-12.361-12.042-27.971-23.766-46.449-34.916l-2.166-1.147c-17.904-10.64-39.185-20.708-63.779-29.054-106.787-35.235-220.838-28.799-330.365 7.264-115.707 38.548-226.381 110.929-317.749 202.361-90.858 90.795-163.558 202.042-202.106 317.813-36.318 109.272-42.498 223.259-7.264 330.047 8.347 25.996 18.987 47.532 29.564 65.946l0.637 0.319h-0.637c11.533 18.414 23.575 33.833 35.298 46.385 9.748 10.895 21.217 18.478 34.024 23.766l3.122 1.083c12.042 3.95 24.339 6.18 37.72 5.607 14.527-0.573 27.398-4.205 39.695-10.577l2.23-1.147 29.628-25.168z" />
<glyph unicode="&#xe913;" glyph-name="top_listing" horiz-adv-x="2185" d="M0 541.9l170.54 35.815c0 0 25.226-573.446 800.028-573.446 0.156 0.012-1.154 26.975-0.829 27.312-62.796 0-540.974 58.098-540.974 532.968l168.22-67.226-275.562 461.76-321.424-417.184zM1395.683 460.409c0 56.648-11.445 100.742-34.34 132.288-22.895 31.54-53.663 47.312-92.287 47.312-24.924 0-46.887-7.040-65.882-21.115-19.001-14.080-33.639-34.85-43.92-62.328-10.28-27.466-15.424-59.522-15.424-96.157 0-36.297 5.058-68.008 15.186-95.142 10.122-27.139 24.608-47.915 43.456-62.322 18.843-14.425 41.043-21.632 66.583-21.632 38.624 0 69.392 15.853 92.287 47.571s34.34 75.559 34.34 131.524zM1523.712 460.409c0-41.386-5.923-79.547-17.758-114.478-11.835-34.937-28.965-64.956-51.397-90.052-22.426-25.102-49.221-44.352-80.368-57.75-31.152-13.391-66.199-20.093-105.133-20.093-38.624 0-73.359 6.788-104.195 20.345-30.836 13.564-57.552 32.986-80.136 58.26-22.59 25.262-39.715 55.116-51.397 89.542s-17.52 72.507-17.52 114.225c0 42.057 5.912 80.557 17.752 115.499 11.835 34.924 28.807 64.778 50.928 89.542 22.121 24.758 48.904 43.835 80.373 57.239 31.458 13.397 66.187 20.099 104.195 20.099 38.624 0 73.665-6.788 105.133-20.351 31.463-13.57 58.411-32.906 80.837-58.002 22.426-25.109 39.483-54.95 51.165-89.548s17.52-72.759 17.52-114.478zM1985.849 457.685c0 37.319-5.24 69.371-15.713 96.157-10.473 26.773-24.988 47.345-43.551 61.684-18.569 14.339-39.118 21.512-61.648 21.512-35.865 0-66.093-15.38-90.678-46.135-24.597-30.761-36.89-76.030-36.89-135.814 0-56.33 12.212-100.132 36.648-131.406s54.744-46.912 90.92-46.912c21.58 0 41.571 6.822 59.978 20.478 18.402 13.65 33.159 34.121 44.271 61.427 11.107 27.293 16.663 60.299 16.663 99.009zM1731.18 663.479v-17.111c24.43 32.836 49.816 56.938 76.157 72.312 26.336 15.38 56.172 23.074 89.492 23.074 39.987 0 76.796-11.236 110.438-33.695 33.636-22.465 60.214-55.295 79.727-98.489 19.524-43.207 29.272-94.345 29.272-153.439 0-43.545-5.625-83.548-16.887-120.008-11.274-36.46-26.745-67.045-46.419-91.749-19.68-24.71-42.918-43.721-69.732-57.019-26.819-13.299-55.619-19.957-86.4-19.957-37.126 0-68.304 8.126-93.534 24.365s-49.274 40.084-72.115 71.534v-122.284c0-62.205-20.791-93.304-62.362-93.304-24.441 0-40.626 8.032-48.555 24.102-7.934 16.070-11.901 39.488-11.901 70.243v520.384c0 26.961 5.395 47.088 16.185 60.393 10.784 13.299 25.547 19.957 44.271 19.957 18.402 0 33.395-6.828 44.985-20.472 11.584-13.662 17.377-33.269 17.377-58.838zM880.272 652.267v-414.479c0-23.875-5.108-41.583-15.319-53.123-10.22-11.54-23.417-17.317-39.609-17.317-16.439 0-29.833 5.834-40.167 17.512-10.339 11.678-15.511 29.319-15.511 52.927v414.479h-121.063c-18.936 0-33.011 4.339-42.225 13.035-9.219 8.692-13.823 20.175-13.823 34.443 0 14.788 4.792 26.461 14.386 35.025 9.584 8.563 23.476 12.845 41.662 12.845h352.737c19.178 0 33.44-4.415 42.783-13.235s14.011-20.37 14.011-34.634c0-14.269-4.733-25.752-14.198-34.443-9.466-8.697-23.669-13.035-42.595-13.035h-121.068z" />
<glyph unicode="&#xe914;" glyph-name="Top_Premium" horiz-adv-x="5632" d="M0 520.010l181.135 37.227c0 0 26.786-596.055 849.697-596.055 0.166 0.019-1.232 28.045-0.881 28.395-66.695 0-574.564 60.388-574.564 553.969l178.665-69.869-292.678 479.961-341.375-433.627zM1540.72 466.063c0 58.611-12.924 104.244-38.785 136.886-25.855 32.636-60.593 48.957-104.21 48.957-28.146 0-52.947-7.285-74.405-21.849-21.457-14.57-37.987-36.062-49.597-64.495-11.609-28.427-17.417-61.591-17.417-99.5 0-37.558 5.719-70.373 17.156-98.449 11.424-28.089 27.788-49.581 49.067-64.495 21.278-14.92 46.348-22.377 75.196-22.377 43.616 0 78.355 16.404 104.21 49.224 25.861 32.821 38.785 78.186 38.785 136.096zM1685.291 466.063c0-42.825-6.689-82.312-20.047-118.457-13.371-36.151-32.709-67.214-58.040-93.183-25.331-25.975-55.583-45.894-90.762-59.757-35.173-13.863-74.749-20.791-118.717-20.791-43.623 0-82.842 7.024-117.67 21.053-34.822 14.035-64.984 34.132-90.494 60.286-25.51 26.141-44.848 57.032-58.034 92.654-13.199 35.622-19.791 75.028-19.791 118.196 0 43.512 6.676 83.357 20.053 119.514 13.364 36.138 32.53 67.029 57.511 92.654 24.98 25.618 55.226 45.359 90.756 59.229 35.53 13.863 74.749 20.791 117.67 20.791 43.616 0 83.187-7.024 118.717-21.053 35.53-14.041 65.961-34.050 91.292-60.025 25.325-25.975 44.58-56.853 57.779-92.654 13.186-35.801 19.779-75.289 19.779-118.457zM2149.342 468.693c0 37.909-5.808 70.455-17.417 97.659-11.609 27.198-27.699 48.085-48.276 62.655-20.583 14.557-43.361 21.849-68.335 21.849-39.755 0-73.262-15.621-100.514-46.856-27.265-31.248-40.891-77.218-40.891-137.937 0-57.21 13.537-101.703 40.623-133.46 27.086-31.77 60.683-47.645 100.782-47.645 23.921 0 46.080 6.922 66.484 20.791 20.398 13.863 36.756 34.655 49.073 62.387 12.311 27.726 18.47 61.247 18.47 100.557zM1867.047 677.703v-17.372c27.080 33.343 55.219 57.821 84.418 73.442 29.193 15.614 62.265 23.428 99.2 23.428 44.325 0 85.127-11.411 122.418-34.215 37.285-22.823 66.746-56.166 88.375-100.035 21.642-43.882 32.447-95.819 32.447-155.837 0-44.219-6.235-84.853-18.719-121.877-12.496-37.036-29.646-68.093-51.454-93.189-21.815-25.096-47.573-44.404-77.296-57.91-29.729-13.506-61.653-20.263-95.772-20.263-41.153 0-75.713 8.247-103.68 24.74s-54.619 40.71-79.938 72.659v-124.201c0-63.177-23.046-94.762-69.126-94.762-27.093 0-45.033 8.164-53.822 24.485-8.795 16.321-13.192 40.099-13.192 71.334v528.523c0 27.376 5.98 47.817 17.941 61.336 11.954 13.506 28.318 20.263 49.073 20.263 20.398 0 37.017-6.928 49.865-20.791 12.841-13.869 19.262-33.788 19.262-59.757zM1216.035 824.833h-168.977v-554.186c0-31.923-7.129-55.599-21.381-71.028-14.264-15.43-32.684-23.154-55.277-23.154-22.951 0-41.644 7.801-56.068 23.415-14.43 15.614-21.642 39.201-21.642 70.767v554.186h-168.977c-26.423 0-46.067 5.801-58.934 17.429-12.867 11.622-19.294 26.975-19.294 46.053 0 19.773 6.689 35.38 20.079 46.83 13.384 11.45 32.767 17.174 58.149 17.174h492.322c26.767 0 46.674-5.903 59.713-17.697s19.562-27.236 19.562-46.308c0-19.078-6.606-34.432-19.823-46.053-13.211-11.628-33.028-17.429-59.451-17.429zM2838.734 400.133c0 26.567-4.068 49.373-12.211 68.443-8.127 19.061-19.411 33.691-33.826 43.905-14.424 10.206-30.388 15.309-47.893 15.309-27.869 0-51.339-10.944-70.443-32.833-19.113-21.897-28.669-54.119-28.669-96.674 0-40.093 9.497-71.27 28.473-93.533 18.985-22.262 42.531-33.394 70.639-33.394 16.764 0 32.294 4.848 46.599 14.578 14.288 9.705 25.75 24.283 34.388 43.718 8.629 19.427 12.943 42.929 12.943 70.481zM2640.892 546.613v-12.176c18.977 23.366 38.694 40.526 59.168 51.47 20.457 10.944 43.629 16.421 69.524 16.421 31.060 0 59.653-7.998 85.795-23.986 26.125-15.996 46.778-39.354 61.934-70.107 15.173-30.753 22.746-67.152 22.746-109.215 0-30.991-4.374-59.468-13.13-85.416-8.748-25.956-20.772-47.734-36.047-65.31-15.292-17.593-33.349-31.127-54.181-40.585-20.84-9.467-43.212-14.205-67.116-14.205-28.856 0-53.066 5.782-72.673 17.338-19.598 11.556-38.268 28.529-56.019 50.918v-151.278c0-44.279-16.151-66.422-48.446-66.422-18.994 0-31.562 5.723-37.723 17.16-6.17 11.445-9.25 28.112-9.25 50.001v434.653c0 19.189 4.187 33.513 12.586 42.988 8.374 9.467 19.836 14.196 34.388 14.196 14.288 0 25.938-4.857 34.941-14.561 9.003-9.73 13.505-23.68 13.505-41.884zM3102.326 338.875v-84.125c0-20.42-4.799-35.729-14.415-45.934s-21.819-15.309-36.609-15.309c-14.56 0-26.508 5.154-35.877 15.487s-14.050 25.591-14.050 45.756v280.42c0 45.264 16.381 67.891 49.178 67.891 16.773 0 28.856-5.29 36.251-15.861 7.395-10.579 11.454-26.194 12.194-46.851 12.075 20.658 24.465 36.272 37.17 46.851 12.696 10.571 29.639 15.861 50.845 15.861 21.198 0 41.791-5.29 61.755-15.861 19.981-10.579 29.954-24.597 29.954-42.063 0-12.303-4.246-22.458-12.756-30.439-8.51-7.998-17.7-11.997-27.554-11.997-3.685 0-12.628 2.267-26.806 6.835-14.177 4.542-26.695 6.818-37.528 6.818-14.798 0-26.882-3.872-36.251-11.624-9.378-7.743-16.636-19.24-21.819-34.497-5.174-15.249-8.748-33.394-10.722-54.416-1.983-21.040-2.961-46.682-2.961-76.942zM3380.354 430.754h183.052c-2.468 34.438-11.777 60.199-27.929 77.299-16.143 17.092-37.409 25.642-63.789 25.642-25.146 0-45.791-8.66-61.942-26.007-16.143-17.338-25.955-42.988-29.392-76.934zM3577.821 373.57h-197.467c0.23-22.891 4.859-43.056 13.862-60.513 9.003-17.474 20.959-30.634 35.877-39.49s31.367-13.279 49.365-13.279c12.067 0 23.112 1.409 33.094 4.245 9.99 2.819 19.666 7.243 29.035 13.279 9.361 6.020 17.989 12.481 25.878 19.376 7.897 6.877 18.126 16.234 30.703 28.036 5.174 4.432 12.569 6.648 22.185 6.648 10.356 0 18.73-2.827 25.146-8.491 6.408-5.663 9.616-13.653 9.616-23.986 0-9.102-3.583-19.741-10.731-31.908-7.148-12.184-17.93-23.867-32.345-35.058-14.432-11.199-32.55-20.488-54.368-27.866s-46.914-11.055-75.251-11.055c-64.852 0-115.264 18.433-151.251 55.333-36.005 36.9-53.994 86.953-53.994 150.182 0 29.76 4.434 57.38 13.309 82.835 8.876 25.463 21.827 47.284 38.83 65.488 17.019 18.204 37.962 32.163 62.878 41.884 24.891 9.713 52.505 14.578 82.833 14.578 39.442 0 73.277-8.312 101.512-24.912 28.227-16.608 49.365-38.064 63.414-64.393 14.058-26.312 21.079-53.134 21.079-80.423 0-25.345-7.267-41.765-21.81-49.263-14.56-7.514-35.017-11.25-61.397-11.25zM4062.941 390.904v-133.931c0-21.167-4.799-37.036-14.424-47.607-9.607-10.571-22.312-15.861-38.089-15.861-15.292 0-27.682 5.29-37.17 15.861s-14.228 26.44-14.228 47.607v160.499c0 25.328-0.868 45.017-2.595 59.035s-6.416 25.514-14.050 34.506c-7.642 8.966-19.725 13.458-36.243 13.458-33.043 0-54.794-11.318-65.269-33.946-10.484-22.636-15.717-55.104-15.717-97.405v-136.147c0-20.912-4.748-36.722-14.228-47.42-9.497-10.698-22.006-16.047-37.545-16.047-15.292 0-27.793 5.349-37.536 16.047-9.735 10.698-14.603 26.508-14.603 47.42v288.164c0 18.943 4.365 33.334 13.13 43.166 8.739 9.841 20.27 14.757 34.566 14.757 13.811 0 25.333-4.61 34.592-13.831 9.242-9.229 13.862-21.957 13.862-38.191v-9.594c17.496 20.904 36.234 36.289 56.207 46.13 19.972 9.832 42.157 14.757 66.563 14.757 25.393 0 47.203-5.043 65.457-15.13 18.245-10.087 33.29-25.336 45.118-45.756 17.002 20.666 35.256 35.983 54.734 45.943 19.462 9.96 41.042 14.944 64.716 14.944 27.605 0 51.399-5.409 71.371-16.234 19.964-10.826 34.881-26.321 44.744-46.495 8.629-18.204 12.952-46.86 12.952-85.968v-196.66c0-21.167-4.816-37.036-14.432-47.607s-22.321-15.861-38.089-15.861c-15.292 0-27.793 5.349-37.536 16.047-9.735 10.698-14.603 26.508-14.603 47.42v169.354c0 21.643-0.936 38.989-2.774 52.031-1.847 13.033-6.842 23.978-14.977 32.833s-20.474 13.279-36.983 13.279c-13.309 0-25.946-3.931-37.911-11.802-11.948-7.879-21.257-18.45-27.912-31.73-7.395-16.981-11.097-46.996-11.097-90.035zM4479.268 545.875v-291.127c0-20.165-4.799-35.423-14.424-45.756-9.607-10.333-21.819-15.487-36.609-15.487s-26.806 5.29-36.056 15.861c-9.242 10.571-13.862 25.71-13.862 45.382v288.172c0 19.928 4.621 34.93 13.862 45.017 9.25 10.087 21.266 15.122 36.056 15.122s27.001-5.035 36.609-15.122c9.624-10.087 14.424-24.113 14.424-42.063zM4429.341 649.928c-14.050 0-26.074 4.305-36.056 12.914s-14.969 20.785-14.969 36.527c0 14.264 5.106 26.015 15.334 35.245 10.237 9.212 22.125 13.831 35.69 13.831 13.062 0 24.644-4.186 34.771-12.549 10.101-8.355 15.156-20.539 15.156-36.527 0-15.495-4.936-27.62-14.79-36.34-9.863-8.737-21.572-13.101-35.137-13.101zM4826.811 250.32v12.914c-12.084-15.249-24.772-28.036-38.089-38.369-13.309-10.333-27.869-18.026-43.638-23.061-15.777-5.043-33.775-7.565-53.986-7.565-24.414 0-46.293 5.043-65.644 15.13-19.36 10.078-34.337 23.986-44.931 41.698-12.577 21.388-18.866 52.141-18.866 92.234v199.623c0 20.165 4.561 35.236 13.684 45.196 9.122 9.968 21.198 14.944 36.243 14.944 15.283 0 27.605-5.043 36.983-15.122 9.361-10.095 14.050-25.090 14.050-45.017v-161.246c0-23.366 1.974-42.988 5.914-58.849 3.94-15.869 11.029-28.291 21.266-37.274 10.229-8.975 24.091-13.466 41.604-13.466 17.011 0 33.035 5.043 48.080 15.13 15.028 10.087 25.997 23.247 32.916 39.481 5.667 14.264 8.501 45.501 8.501 93.72v122.503c0 19.928 4.672 34.922 14.050 45.017 9.369 10.078 21.572 15.122 36.617 15.122 15.020 0 27.103-4.976 36.234-14.944 9.122-9.96 13.684-25.030 13.684-45.196v-291.857c0-19.189-4.382-33.58-13.13-43.175s-20.032-14.383-33.835-14.383c-13.811 0-25.206 4.976-34.209 14.935s-13.496 23.927-13.496 41.876zM5338.914 390.904v-133.931c0-21.167-4.799-37.036-14.415-47.607s-22.312-15.861-38.089-15.861c-15.292 0-27.682 5.29-37.17 15.861s-14.237 26.44-14.237 47.607v160.499c0 25.328-0.868 45.017-2.595 59.035-1.719 14.018-6.408 25.514-14.041 34.506-7.642 8.966-19.725 13.458-36.251 13.458-33.043 0-54.785-11.318-65.269-33.946-10.475-22.636-15.709-55.104-15.709-97.405v-136.147c0-20.912-4.748-36.722-14.237-47.42s-22.006-16.047-37.536-16.047c-15.292 0-27.801 5.349-37.545 16.047-9.735 10.698-14.603 26.508-14.603 47.42v288.164c0 18.943 4.374 33.334 13.13 43.166 8.748 9.841 20.27 14.757 34.575 14.757 13.803 0 25.333-4.61 34.583-13.831 9.242-9.229 13.862-21.957 13.862-38.191v-9.594c17.496 20.904 36.243 36.289 56.207 46.13 19.981 9.832 42.166 14.757 66.563 14.757 25.401 0 47.212-5.043 65.465-15.13 18.236-10.087 33.281-25.336 45.11-45.756 17.011 20.666 35.256 35.983 54.734 45.943 19.47 9.96 41.051 14.944 64.725 14.944 27.605 0 51.399-5.409 71.362-16.234 19.972-10.826 34.89-26.321 44.744-46.495 8.637-18.204 12.952-46.86 12.952-85.968v-196.66c0-21.167-4.808-37.036-14.432-47.607-9.607-10.571-22.312-15.861-38.081-15.861-15.292 0-27.801 5.349-37.545 16.047-9.735 10.698-14.603 26.508-14.603 47.42v169.354c0 21.643-0.928 38.989-2.766 52.031-1.855 13.033-6.842 23.978-14.986 32.833-8.127 8.856-20.466 13.279-36.983 13.279-13.309 0-25.946-3.931-37.902-11.802-11.956-7.879-21.266-18.45-27.912-31.73-7.395-16.981-11.105-46.996-11.105-90.035z" />
<glyph unicode="&#xe915;" glyph-name="Top_listing" horiz-adv-x="2355" d="M0 520.010l181.135 37.227c0 0 26.786-596.055 849.697-596.055 0.166 0.019-1.232 28.045-0.881 28.395-66.695 0-574.564 60.388-574.564 553.969l178.665-69.869-292.678 479.961-341.375-433.627zM1540.72 466.063c0 58.611-12.924 104.244-38.785 136.886-25.855 32.636-60.593 48.957-104.21 48.957-28.146 0-52.947-7.285-74.405-21.849-21.457-14.57-37.987-36.062-49.597-64.495-11.609-28.427-17.417-61.591-17.417-99.5 0-37.558 5.719-70.373 17.156-98.449 11.424-28.089 27.788-49.581 49.067-64.495 21.278-14.92 46.348-22.377 75.196-22.377 43.616 0 78.355 16.404 104.21 49.224 25.861 32.821 38.785 78.186 38.785 136.096zM1685.291 466.063c0-42.825-6.689-82.312-20.047-118.457-13.371-36.151-32.709-67.214-58.040-93.183-25.331-25.975-55.583-45.894-90.762-59.757-35.173-13.863-74.749-20.791-118.717-20.791-43.623 0-82.842 7.024-117.67 21.053-34.822 14.035-64.984 34.132-90.494 60.286-25.51 26.141-44.848 57.032-58.034 92.654-13.199 35.622-19.791 75.028-19.791 118.196 0 43.512 6.676 83.357 20.053 119.514 13.364 36.138 32.53 67.029 57.511 92.654 24.98 25.618 55.226 45.359 90.756 59.229 35.53 13.863 74.749 20.791 117.67 20.791 43.616 0 83.187-7.024 118.717-21.053 35.53-14.041 65.961-34.050 91.292-60.025 25.325-25.975 44.58-56.853 57.779-92.654 13.186-35.801 19.779-75.289 19.779-118.457zM2149.342 468.693c0 37.909-5.808 70.455-17.417 97.659-11.609 27.198-27.699 48.085-48.276 62.655-20.583 14.557-43.361 21.849-68.335 21.849-39.755 0-73.262-15.621-100.514-46.856-27.265-31.248-40.891-77.218-40.891-137.937 0-57.21 13.537-101.703 40.623-133.46 27.086-31.77 60.683-47.645 100.782-47.645 23.921 0 46.080 6.922 66.484 20.791 20.398 13.863 36.756 34.655 49.073 62.387 12.311 27.726 18.47 61.247 18.47 100.557zM1867.047 677.703v-17.372c27.080 33.343 55.219 57.821 84.418 73.442 29.193 15.614 62.265 23.428 99.2 23.428 44.325 0 85.127-11.411 122.418-34.215 37.285-22.823 66.746-56.166 88.375-100.035 21.642-43.882 32.447-95.819 32.447-155.837 0-44.219-6.235-84.853-18.719-121.877-12.496-37.036-29.646-68.093-51.454-93.189-21.815-25.096-47.573-44.404-77.296-57.91-29.729-13.506-61.653-20.263-95.772-20.263-41.153 0-75.713 8.247-103.68 24.74s-54.619 40.71-79.938 72.659v-124.201c0-63.177-23.046-94.762-69.126-94.762-27.093 0-45.033 8.164-53.822 24.485-8.795 16.321-13.192 40.099-13.192 71.334v528.523c0 27.376 5.98 47.817 17.941 61.336 11.954 13.506 28.318 20.263 49.073 20.263 20.398 0 37.017-6.928 49.865-20.791 12.841-13.869 19.262-33.788 19.262-59.757zM1216.035 824.833h-168.977v-554.186c0-31.923-7.129-55.599-21.381-71.028-14.264-15.43-32.684-23.154-55.277-23.154-22.951 0-41.644 7.801-56.068 23.415-14.43 15.614-21.642 39.201-21.642 70.767v554.186h-168.977c-26.423 0-46.067 5.801-58.934 17.429-12.867 11.622-19.294 26.975-19.294 46.053 0 19.773 6.689 35.38 20.079 46.83 13.384 11.45 32.767 17.174 58.149 17.174h492.322c26.767 0 46.674-5.903 59.713-17.697s19.562-27.236 19.562-46.308c0-19.078-6.606-34.432-19.823-46.053-13.211-11.628-33.028-17.429-59.451-17.429z" />
<glyph unicode="&#xe916;" glyph-name="ar_arrow" d="M414.925 133.656h193.695v234.941c0 17.157 13.673 31.341 31.447 31.341h108.241l-236.763 237.229-235.852-237.229h108.013c17.091 0 31.219-14.183 31.219-31.341v-234.941zM822.303 789.333c17.214 0 31.030-15.026 31.030-33.152s-13.816-32.675-31.030-32.675h-620.606c-16.987 0-31.030 14.549-31.030 32.675s14.043 33.152 31.030 33.152h620.606zM639.519 54.154h-254.811c-17.214 0-31.030 14.616-31.030 32.533v242.115h-151.981c-16.987 0-31.030 14.381-31.030 32.533 0 8.958 3.397 17.21 9.286 22.868l310.077 322.741c12.457 12.966 31.936 12.966 44.167 0l310.303-322.741c11.778-12.73 11.778-33.241 0-45.971-6.342-6.129-14.269-9.43-22.197-9.43h-151.754v-242.115c0-17.917-14.043-32.533-31.030-32.533z" />
<glyph unicode="&#xe917;" glyph-name="ar_cell" d="M230.68 243.616c-7.24 8.238-19.619 8.238-27.093 0-7.474-7.489-7.007-20.719 0-28.707l24.757-26.46c7.474-8.238 19.619-8.238 27.326 0.25 7.24 7.738 7.24 20.719-0.467 28.956l-24.524 25.961zM570.273 443.066l-80.811-85.871-0.934-1.498c-4.438-4.244-9.809-6.74-15.415-6.74s-11.444 2.496-15.181 6.241v0.499l-96.693 103.095-0.934 1.248c-4.438 4.743-6.54 10.484-6.54 16.475 0 6.241 2.102 11.982 6.54 16.475l81.511 87.369c7.707 8.487 21.954 8.487 29.895 0.998l98.561-105.342c8.408-8.986 8.408-24.214 0-32.95zM597.365 504.973l-99.028 105.841c-23.122 23.465-60.958 22.965-83.847-1.248l-81.745-87.618c-11.211-12.481-17.283-28.956-17.283-45.432s6.072-32.95 17.283-45.681l1.168-0.749 96.459-103.594c11.911-12.731 27.56-18.971 42.741-18.971 15.415 0 31.063 6.241 42.507 18.971l1.168 1.498 80.344 85.871h0.234c23.122 25.212 23.122 66.151 0 90.863v0.25zM412.855 282.307c-7.474 7.988-19.385 7.988-27.093 0-7.474-7.489-7.474-21.218 0-28.707l24.757-26.46c7.474-8.238 19.619-8.238 27.326-0.499 7.007 8.487 7.24 21.717 0 29.206l-24.991 26.46zM899.121 787.048c-50.448 53.919-120.282 87.618-197.589 87.618-10.744 0-19.152-8.986-19.152-20.719 0-11.233 8.408-20.719 19.152-20.719 66.564 0 126.588-28.707 170.263-75.387 43.909-46.68 70.768-111.083 70.768-181.976 0-11.732 8.875-21.218 19.385-21.218s19.385 9.486 19.385 21.218c0 82.127-31.297 157.014-82.212 211.182zM358.203 224.394c-7.24 7.489-19.385 7.489-26.626-0.25-8.175-7.738-7.941-21.468 0-28.956l24.29-26.71c7.474-7.489 19.852-7.489 27.093 0 7.707 8.487 7.474 21.218 0 29.206l-24.757 26.71zM818.777 700.429c-30.129 32.451-71.235 52.172-117.246 52.172-10.744 0-19.152-9.236-19.152-20.719 0-11.233 8.408-20.719 19.152-20.719 35.034 0 66.797-14.728 89.686-39.441l1.401-0.998c22.421-24.713 35.968-58.412 35.968-94.857 0-11.732 8.875-21.218 19.385-21.218s19.152 9.486 19.152 21.218c0 47.429-18.217 91.612-47.646 123.564l-0.701 0.998zM622.122 401.129l-274.196-293.309-1.635-0.998c-13.78-14.229-32.231-21.717-50.448-21.717-18.685 0-37.603 7.738-51.383 22.716l-116.078 124.063c-14.013 15.477-20.787 35.197-20.787 55.417 0 19.97 6.773 40.19 20.787 55.167l274.196 293.059c28.26 30.205 75.205 30.205 103.699 0h-0.234l117.479-125.062c26.859-30.454 26.392-79.63-1.401-109.336zM699.663 643.514l-54.886-58.662-93.423 99.6c-53.017 56.415-140.601 56.415-194.086 0l-274.663-293.559c-26.392-28.208-39.938-66.151-39.938-103.594 0-37.943 13.546-75.137 39.938-103.844l116.078-123.814c26.859-28.956 62.126-43.185 97.16-43.185 34.566 0 68.899 13.979 95.291 40.938l2.336 2.247 274.196 293.059c44.609 47.678 52.55 123.315 20.086 180.229l56.988 61.657c12.612 13.729 12.612 34.698 0.234 48.926-12.612 12.731-32.698 12.731-45.31 0zM158.044 321.998c-7.941 8.238-19.852 8.238-27.326 0-7.24-8.238-7.24-21.218 0-28.956l24.524-26.46c7.474-7.988 19.852-7.988 27.326 0 7.474 8.238 7.474 21.218 0 28.956l-24.524 26.46zM209.427 324.744c7.941-7.738 20.319-7.988 27.326 0 8.175 8.487 8.175 20.968 0 28.956l-24.29 26.959c-7.474 7.489-19.852 7.489-27.326 0-7.707-8.238-7.707-21.218 0-29.206l24.29-26.71zM264.313 383.405c7.941-8.487 20.086-8.487 27.326 0 7.474 7.489 7.474 20.968 0 28.707l-24.524 26.46c-7.941 7.988-20.086 7.988-27.326 0-7.707-8.238-7.474-21.218 0-28.707l24.524-26.46zM285.099 302.028c-7.007 8.487-19.385 8.487-26.859 0-7.474-7.988-7.474-20.719-0.234-29.206l25.224-25.961c7.007-8.238 19.385-8.238 26.859 0 7.474 7.988 7.474 20.719 0 29.206l-24.991 25.961zM337.416 305.273c7.24-8.487 19.619-8.487 27.326 0 7.24 7.738 7.24 20.719 0 28.707l-24.757 26.211c-7.474 8.238-19.852 8.737-27.093 0-7.474-7.489-7.474-20.469-0.234-28.707l24.757-26.211zM304.017 165.733c-7.941 8.238-19.619 8.238-27.326 0-7.474-7.988-7.474-20.968 0-28.956l24.524-26.211c7.707-7.988 19.852-7.988 27.326 0.499 7.24 7.489 7.24 20.719 0 28.208l-24.524 26.46z" />
<glyph unicode="&#xe918;" glyph-name="ar_listing" d="M439.564 80.537c-15.128 0-28.007 13.489-28.007 30.294s12.879 30.073 28.007 30.073h385.762c15.537 0 28.007-13.267 28.007-30.073s-12.47-30.294-28.007-30.294h-385.762zM439.564 174.862c-15.128 0-28.007 13.931-28.007 30.736 0 16.584 12.879 30.515 28.007 30.515h385.762c15.537 0 28.007-13.931 28.007-30.515 0-16.805-12.47-30.736-28.007-30.736h-385.762zM439.564 332.918c-15.128 0-28.007 13.931-28.007 30.736s12.879 30.294 28.007 30.294h385.762c15.537 0 28.007-13.489 28.007-30.294s-12.47-30.736-28.007-30.736h-385.762zM439.564 459.496c-15.128 0-28.007 13.046-28.007 29.852 0 17.027 12.879 30.736 28.007 30.736h385.762c15.537 0 28.007-13.71 28.007-30.736 0-16.805-12.47-29.852-28.007-29.852h-385.762zM439.564 617.22c-15.128 0-28.007 13.71-28.007 30.515 0 17.027 12.879 30.515 28.007 30.515h385.762c15.537 0 28.007-13.489 28.007-30.515 0-16.805-12.47-30.515-28.007-30.515h-385.762zM311.558 247.422h-147.111v-147.047h147.111v147.047zM146.113 283.797h183.558c10.161 0 18.334-7.739 18.334-17.911v-183.754c0-9.951-8.173-18.132-18.334-18.132h-183.558c-9.719 0-18.113 8.182-18.113 18.132v183.754c0 10.172 8.394 17.911 18.113 17.911zM311.558 500.135h-147.111v-147.047h147.111v147.047zM146.113 536.62h183.558c10.161 0 18.334-7.96 18.334-17.911v-183.975c0-9.951-8.173-18.132-18.334-18.132h-183.558c-9.719 0-18.113 8.182-18.113 18.132v183.975c0 9.951 8.394 17.911 18.113 17.911zM311.558 752.848h-147.111v-147.047h147.111v147.047zM146.113 789.333h183.558c10.161 0 18.334-8.403 18.334-18.353v-183.312c0-10.172-8.173-18.353-18.334-18.353h-183.558c-9.719 0-18.113 8.182-18.113 18.353v183.312c0 9.951 8.394 18.353 18.113 18.353zM439.564 712.098c-15.128 0-28.007 13.489-28.007 30.294s12.879 30.515 28.007 30.515h385.762c15.537 0 28.007-13.71 28.007-30.515s-12.47-30.294-28.007-30.294h-385.762z" />
<glyph unicode="&#xe919;" glyph-name="ar_photo" d="M702.325 257.675h-520.046v520.046h520.046v-520.046zM756.401 230.716v573.941c0 15.025-12.115 27.342-27.139 27.342h-574.122c-14.844 0-27.139-12.318-27.139-27.342v-573.941c0-15.386 12.295-26.936 27.139-26.936h574.122c15.025 0 27.139 11.551 27.139 26.936zM879.464 670.653c-8.889 0-16.198-7.332-16.198-16.378v-557.947h-557.744c-8.866 0-16.378-7.129-16.378-16.175 0-8.663 7.512-16.153 16.378-16.153h573.941c9.024 0 16.536 7.49 16.536 16.153v574.122c0 9.046-7.512 16.378-16.536 16.378zM805.874 744.22c-8.866 0-16.175-7.309-16.175-16.356v-557.969h-557.766c-8.866 0-16.378-7.106-16.378-16.153 0-8.663 7.512-16.153 16.378-16.153h573.941c9.046 0 16.559 7.49 16.559 16.153v574.122c0 9.046-7.512 16.356-16.559 16.356z" />
<glyph unicode="&#xe91a;" glyph-name="ar_visibilidad" d="M569.646 548.782c-6.18 6.257-13.947 11.434-23.012 14.811l-0.768 0.514c-6.453 1.817-13.452 3.36-21.202 3.36-17.583 0-33.374-7.251-45.256-18.685-11.113-11.417-18.608-27.513-18.608-45.444 0-17.913 7.494-33.496 18.608-45.169 11.643-11.434 27.672-18.702 45.256-18.702s33.63 7.268 44.983 18.702c11.916 11.674 19.154 27.256 19.154 45.169 0 17.656-7.238 34.027-19.154 45.444zM435.2 392.774c-8.554 5.054-16.382 11.566-23.451 19.585l-0.759 0.265c-22.983 24.076-37.154 56.718-37.154 92.856 0 22.584 5.391 43.445 14.929 61.987h-149.89c-44.739 0-85.315-18.541-114.673-48.665-29.326-30.14-47.403-71.796-47.403-117.727s18.077-87.587 47.403-117.71c29.358-30.123 69.934-48.698 114.673-48.698 27.147 0 53.31 6.528 75.050 18.574h0.258c23.225 12.543 43.513 31.118 58.168 53.47l0.516 0.249c16.366 23.33 26.631 37.132 37.138 51.465l25.194 34.349zM635.246 567.467c9.538-18.527 15.412-39.371 15.412-61.937 0-36.358-14.928-69.471-38.377-93.047l-0.516-1.49c-7.069-7.036-14.412-13.030-22.965-18.080 8.553-12.020 17.123-23.543 25.676-35.1 13.701-18.543 27.371-37.633 36.682-50.646l1.695-2.003c14.928-21.573 34.471-39.139 56.968-51.672h0.484c21.997-12.036 47.656-18.56 74.801-18.56v-0.265c44.735 0 85.307 18.825 114.647 48.924l1.743 2.003c28.097 29.106 45.704 70.216 45.704 115.613 0 45.894-18.107 87.517-47.447 117.633l-1.227 1.987c-29.307 28.593-69.411 46.639-113.42 46.639h-149.861zM780.673 490.667c-24.532 0-46.65-9.635-63.004-26.011v0c-16.37-16.138-26.469-38.778-26.469-63.342h0.238c0-24.326 9.86-46.982 26.231-63.104v-0.254c16.354-16.122 38.219-26.488 63.004-26.488 25.024 0 47.126 10.366 63.496 26.488 15.894 16.376 25.977 39.033 25.977 63.358h0.254c0 24.087-9.384 46.251-25.278 62.373l-0.953 0.97c-16.37 16.376-38.473 26.011-63.496 26.011zM780.8 541.867c39.036 0 74.446-15.894 99.943-41.392l1.048-1.306c24.449-25.516 39.809-60.104 39.809-98.111 0-38.763-15.36-73.918-40.857-99.434-25.497-25.498-60.907-41.358-99.943-41.358-38.778 0-73.896 15.859-99.41 41.358-25.497 25.516-41.39 60.671-41.39 99.434 0 39.055 16.391 74.176 41.39 99.417 25.514 25.498 60.632 41.392 99.41 41.392zM307.020 464.656c-16.433 16.376-38.614 26.011-63.709 26.011-24.824 0-46.782-9.635-63.183-25.773-16.401-16.376-26.528-39.017-26.528-63.581 0-23.849 9.649-46.235 25.573-62.389l0.955-0.715c16.401-16.376 38.359-26.742 63.183-26.742 24.601 0 46.305 9.905 62.499 25.534l1.21 1.208c15.891 16.122 25.78 38.778 25.78 63.104 0 24.564-9.888 47.205-25.78 63.342zM243.183 541.867c39.036 0 74.429-15.894 99.943-41.392 24.981-25.241 40.874-60.361 40.874-99.417 0-38.763-15.893-73.918-41.39-99.434l-1.289-1.306c-25.256-24.708-59.602-40.052-98.139-40.052-38.778 0-73.896 15.859-99.393 41.358l-1.048 1.048c-24.483 25.498-40.341 60.378-40.341 98.386 0 39.055 15.858 74.176 41.39 99.417 25.497 25.498 60.615 41.392 99.393 41.392zM230.4 644.267h102.4c-3.026 4.996-7.009 9.604-12.15 13.158-9.819 7.986-24.068 12.442-39.274 12.442-14.959 0-29.239-4.456-39.305-12.442-5.141-3.553-9.108-8.162-11.671-13.158zM861.66 625.713c34.651-11.944 65.263-31.019 90.517-55.914l2.287-1.778c42.98-43.198 69.536-103.44 69.536-170.007 0-65.309-25.538-124.762-68.001-167.96l-1.536-1.795c-43.247-43.466-103.153-70.392-169.401-70.392-39.692 0-77.365 9.915-110.998 27.445v0.268c-33.616 17.766-62.71 43.198-84.442 74.451l-0.501 0.52c-14.421 20.819-26.039 35.565-37.172 50.814-13.67 18.302-26.806 36.068-39.959 53.347-13.904-19.309-26.79-36.588-39.175-52.844-14.421-19.846-29.327-39.641-37.439-50.311-21.749-32.025-50.825-58.212-85.21-75.978v-0.268c-33.633-17.531-71.523-27.445-111.248-27.445-65.747 0-125.386 26.925-168.883 70.392-43.498 43.45-70.037 103.692-70.037 169.755 0 66.332 26.539 126.289 70.037 170.007h0.501c25.287 25.65 56.901 45.748 91.769 57.692 2.804 31.74 16.975 60.964 38.19 82.588 24.036 23.889 57.151 38.366 93.054 38.366 36.404 0 69.286-14.478 93.054-38.366 18.427-18.806 31.58-42.695 36.387-70.157l178.264-0.252c4.523 27.714 17.676 51.603 36.421 70.408 23.501 23.889 56.868 38.366 92.771 38.366 36.421 0 69.286-14.478 93.054-38.366 21.732-21.624 35.886-50.848 38.157-82.588zM792.674 644.267v0h0.926c-3.025 5.136-7.008 9.714-11.685 13.243-10.296 7.932-24.327 12.357-39.747 12.357-14.957 0-29.22-4.426-39.284-12.357-4.677-3.529-9.122-8.106-11.685-13.243h101.474z" />
<glyph unicode="&#xe91b;" glyph-name="mail_time" d="M960.318 715.789c0 64.181-51.414 116.211-114.837 116.211h-682.757c-63.423 0-114.837-52.029-114.837-116.211v-406.737c0-64.181 51.414-116.211 114.837-116.211h383.138c33.251-92.402 117.657-155.91 214.674-161.525s188.027 47.743 231.471 135.706c43.444 87.963 30.985 193.652-31.688 268.805v279.962zM709.765 512.949l-49.067 53.879 232.806 169.033c2.675-6.35 4.093-13.17 4.176-20.073v-227.139c-56.497 33.29-123.893 42.053-186.871 24.299h-1.044zM111.569 305.883c0 1.056 0 2.113 0 3.169v406.737c0.082 6.903 1.501 13.722 4.176 20.073l232.806-169.033-236.982-260.945zM177.339 768.612h653.526l-326.763-237.703-326.763 237.703zM162.723 256.23h-10.44l246.377 273.623 86.65-63.388c10.918-7.935 25.621-7.935 36.539 0l86.65 63.388 39.671-43.315c-72.882-44.818-117.247-124.989-116.925-211.292 0-6.339 0-12.678 1.044-19.016h-369.566zM775.535 92.478c-99.747 0-180.607 81.828-180.607 182.767s80.861 182.767 180.607 182.767c99.747 0 180.607-81.828 180.607-182.767 0-48.473-19.028-94.961-52.899-129.236s-79.809-53.531-127.709-53.531zM852.789 290.036h-57.418v86.63c0 17.504-14.022 31.694-31.319 31.694s-31.319-14.19-31.319-31.694v-118.323c0-17.504 14.022-31.694 31.319-31.694h88.738c17.297 0 31.319 14.19 31.319 31.694s-14.022 31.694-31.319 31.694z" />
<glyph unicode="&#xe91c;" glyph-name="quartiere-copy-3" d="M816.007 233.261l-102.648 102.099c111.957 131.52 114.981 323.37 7.224 458.316s-296.315 175.447-450.454 96.752c-154.139-78.695-230.975-254.69-183.557-420.442 5.412-14.82 21.399-22.98 36.658-18.711s24.627 19.521 21.478 34.974c-40.867 144.608 31.642 297.061 169.964 357.352s300.162 9.987 379.357-117.915c79.195-127.902 51.53-294.293-64.847-390.026-9.123-6.579-13.818-17.652-12.187-28.742s9.318-20.362 19.954-24.066c10.635-3.704 22.459-1.228 30.689 6.428l3.331 3.012c159.107-143.287 247.216-223.464 264.326-240.533l40.184 38.338c-31.943 30.829-144.189 126.242-159.471 143.164zM345.462 508.235c-117.061 0-211.957-94.389-211.957-210.824 0.69-43.087 11.035-85.478 30.28-124.085 26.454-52.026 60.425-99.919 100.831-142.155 18.99-20.572 39.213-39.983 60.559-58.127 11.227-9.301 27.531-9.301 38.758 0 34.407 29.933 66.026 62.895 94.472 98.485 25.723 31.506 47.861 65.747 66.009 102.099 20.051 38.333 31.323 80.605 33.005 123.784 0 116.435-94.896 210.824-211.957 210.824zM496.86 297.412c-1.385-34.128-10.274-67.54-26.040-97.882-24.036-46.637-54.622-89.634-90.839-127.699-13.626-14.758-25.435-26.504-35.124-35.238-25.602 23.916-49.386 49.687-71.157 77.101-21.955 27.33-40.746 57.032-56.017 88.546-14.727 29.642-22.786 62.118-23.618 95.172-0.11 60.913 36.686 115.893 93.226 139.298s121.687 10.625 165.059-32.38c28.852-28.126 44.927-66.737 44.511-106.918zM406.022 327.529c0-33.267-27.113-60.235-60.559-60.235s-60.559 26.968-60.559 60.235c0 33.267 27.113 60.235 60.559 60.235s60.559-26.968 60.559-60.235z" />
<glyph unicode="&#xe91d;" glyph-name="ico_help" horiz-adv-x="2685" d="M139.568 716.432l190 32.865c-34.234-130.775-61.964-249.909-83.189-357.405l85.243 17.459 52.378 307.081 190 32.865c-72.577-280.037-118.45-517.963-137.622-713.784l-176.649-45.189 47.243 279.351c-19.171-4.108-48.27-10.27-87.297-18.486-13.009-84.217-22.252-156.108-27.73-215.676l-176.649-45.189 124.27 726.108zM750.487 563.405c-5.478-19.856-10.27-39.369-14.378-58.541l-11.297-56.486 164.324 34.919-9.243-141.73c-78.054-13.694-139.333-25.676-183.838-35.946-2.739-13.694-5.135-27.387-7.189-41.081l-7.189-40.054 191.027 27.73-13.351-191.027c-98.595-8.216-223.549-31.838-374.865-70.865l122.216 736.378 342 49.297-13.351-190c-67.099-6.162-128.72-13.694-184.865-22.595zM1020.434 716.432l176.649 32.865c-49.298-189.659-87.297-364.594-114-524.811l180.757 27.73-15.405-191.027c-93.118-8.216-211.225-31.838-354.324-70.865l126.324 726.108zM1380.76 717.459c106.127 32.18 193.081 48.27 260.865 48.27 92.433 0 137.964-32.18 136.595-96.541-2.054-129.406-110.918-263.261-326.595-401.568-15.063-83.532-26.018-160.901-32.865-232.108l-163.297-45.189c2.054 15.063 10.27 60.937 24.649 137.622l45.189 243.405c40.397 223.893 58.883 339.261 55.459 346.108zM1510.165 553.135c-4.793-19.171-9.243-38.342-13.351-57.514l-11.297-56.486c63.676 31.496 104.757 64.703 123.243 99.622 2.739 5.478 4.108 9.928 4.108 13.351 0 11.64-8.558 17.459-25.676 17.459-16.433 0-42.108-5.477-77.027-16.432zM2270.255 782.595h-176.27v-237.73h180.811v40.054h-132.811v64.703h119.351v40.054h-119.351v52.703h128.27v31.549l-2.069 8.667h2.069zM1826.595 932.324h747.243c45.855 0 83.027-37.172 83.027-83.027v-359.784c0-45.855-37.172-83.027-83.027-83.027h-747.243c-45.855 0-83.027 37.172-83.027 83.027v359.784c0 45.855 37.172 83.027 83.027 83.027zM1878.919 544.865h44.595v155.027l95.838-155.027h48.162v237.73h-44.595v-158.757l-97.297 158.757h-46.703v-237.73zM2270.255 782.595v-8.667l54.688-229.063h52.054l47.189 177.73 47.351-177.73h50.919l57.73 237.73h-48.324l-36.486-166.054-41.676 166.054h-57.081l-43.459-163.297-35.838 163.297h-47.066z" />
<glyph unicode="&#xe91e;" glyph-name="webcam" d="M755.242 126.918c125.547 80.315 208.761 220.939 208.761 381.034 0 249.643-202.36 452.048-452.003 452.048s-452.003-202.382-452.003-452.026c0-160.117 83.237-300.741 208.783-381.034l-78.888-94.389c-32.050-38.474-4.706-96.53 45.343-96.53h553.485c50.049 0 77.371 58.078 45.343 96.53l-78.821 94.366zM512 255.208c-139.598 0-252.766 113.168-252.766 252.766s113.168 252.744 252.766 252.744c139.598 0 252.766-113.146 252.766-252.744 0.022-139.576-113.168-252.766-252.766-252.766zM512 661.556c-20.385 0-39.79-4.082-57.61-11.286 26.697-43.782 6.669-116.424-60.443-116.424-12.222 0-22.861 2.476-31.983 6.713-2.275-10.527-3.546-21.389-3.546-32.585 0-84.82 68.762-153.582 153.56-153.582s153.56 68.762 153.56 153.582-68.717 153.582-153.538 153.582z" />
<glyph unicode="&#xe91f;" glyph-name="no-phone" d="M512 917.333c-259.197 0-469.333-210.126-469.333-469.333 0-259.197 210.136-469.333 469.333-469.333 259.208 0 469.333 210.136 469.333 469.333 0 259.208-210.126 469.333-469.333 469.333zM512 843.231c94.889 0 181.945-33.458 250.082-89.205l-334.030-334.040c-43.617 45.744-50.313 75.646-50.709 85.054 0 4.307 3.41 9.814 10.221 16.51 6.821 6.706 14.236 13.047 22.267 19.034 8.031 5.966 15.436 12.557 22.257 19.743 6.821 7.165 10.221 13.162 10.221 17.949 0 3.337-0.834 6.758-2.514 10.221-1.658 3.463-65.352 108.26-67.49 110.398-4.818 4.818-23.446 2.566-32.843-2.514-75.876-40.978-82.165-96.13-80.976-118.126 1.147-20.64 13.204-121.797 104.369-223.465l-156.872-156.872c-55.746 68.126-89.205 155.193-89.205 250.082-0.010 218.271 176.949 395.231 395.22 395.231zM512 52.769c-94.92 0-182.007 33.49-250.134 89.267l157.946 157.946c128.816-110.074 216.477-105.506 222.506-105.506 21.986 0 89.371 12.046 118.105 80.955 4.12 9.866 7.958 27.273 2.524 32.853-2.013 2.065-106.945 63.454-110.408 65.133-3.473 1.669-6.884 2.503-10.221 2.503-4.798 0-10.763-3.41-17.97-10.221-7.176-6.831-29.714-37.682-36.41-44.524-6.706-6.811-12.192-10.211-16.521-10.211-2.128 0-4.829 0.584-8.052 1.783-2.733 1.012-27.159 13.569-76.574 54.213l331.172 331.182c55.778-68.137 89.267-155.214 89.267-250.134 0-218.282-176.96-395.241-395.231-395.241z" />
<glyph unicode="&#xe920;" glyph-name="twitter-x" d="M533.333 917.333c16.079 0 32.051-0.745 48.13-2.343 15.972-1.597 31.838-3.94 47.597-7.134 15.759-3.088 31.306-7.028 46.745-11.607 15.333-4.685 30.454-10.116 45.255-16.292 14.907-6.176 29.389-12.991 43.551-20.551s28.005-15.866 41.315-24.81c13.417-8.838 26.301-18.421 38.653-28.644 12.458-10.222 24.384-20.977 35.671-32.37 11.394-11.287 22.148-23.213 32.37-35.671 10.222-12.352 19.806-25.236 28.644-38.653 8.944-13.31 17.25-27.153 24.81-41.315s14.375-28.644 20.551-43.551c6.176-14.801 11.607-29.921 16.292-45.255 4.579-15.44 8.519-30.986 11.606-46.745 3.194-15.759 5.537-31.625 7.134-47.597 1.597-16.079 2.343-32.051 2.343-48.13s-0.745-32.051-2.343-48.13c-1.597-15.972-3.94-31.838-7.134-47.597-3.088-15.759-7.028-31.306-11.606-46.745-4.685-15.333-10.116-30.454-16.292-45.255-6.176-14.907-12.991-29.389-20.551-43.551s-15.866-28.005-24.81-41.315c-8.838-13.417-18.421-26.301-28.644-38.653-10.222-12.458-20.977-24.384-32.37-35.671-11.287-11.394-23.213-22.148-35.671-32.37-12.352-10.222-25.236-19.806-38.653-28.644-13.31-8.944-27.153-17.25-41.315-24.81s-28.644-14.375-43.551-20.551c-14.801-6.176-29.921-11.607-45.255-16.292-15.44-4.579-30.986-8.519-46.745-11.606-15.759-3.194-31.625-5.537-47.597-7.134-16.079-1.597-32.051-2.343-48.13-2.343s-32.051 0.745-48.13 2.343c-15.972 1.597-31.838 3.94-47.597 7.134-15.759 3.088-31.306 7.028-46.745 11.606-15.333 4.685-30.454 10.116-45.255 16.292-14.907 6.176-29.389 12.991-43.551 20.551s-28.005 15.866-41.315 24.81c-13.417 8.838-26.301 18.421-38.653 28.644-12.458 10.222-24.384 20.977-35.671 32.37-11.394 11.287-22.148 23.213-32.37 35.671-10.222 12.352-19.806 25.236-28.644 38.653-8.944 13.31-17.25 27.153-24.81 41.315s-14.375 28.644-20.551 43.551c-6.176 14.801-11.607 29.921-16.292 45.255-4.579 15.44-8.519 30.986-11.607 46.745-3.194 15.759-5.537 31.625-7.134 47.597-1.597 16.079-2.343 32.051-2.343 48.13s0.745 32.051 2.343 48.13c1.597 15.972 3.94 31.838 7.134 47.597 3.088 15.759 7.028 31.306 11.607 46.745 4.685 15.333 10.116 30.454 16.292 45.255 6.176 14.907 12.991 29.389 20.551 43.551s15.866 28.005 24.81 41.315c8.838 13.417 18.421 26.301 28.644 38.653 10.222 12.458 20.977 24.384 32.37 35.671 11.287 11.394 23.213 22.148 35.671 32.37 12.352 10.222 25.236 19.806 38.653 28.644 13.31 8.944 27.153 17.25 41.315 24.81s28.644 14.375 43.551 20.551c14.801 6.176 29.921 11.607 45.255 16.292 15.44 4.579 30.986 8.519 46.745 11.607 15.759 3.194 31.625 5.537 47.597 7.134 16.079 1.597 32.051 2.343 48.13 2.343zM861.829 754.417l-1.384-0.639h-122.667l-191.36-235.493-176.64 235.493h-163.556l254.711-339.596-256.095-315.265 1.384 0.639h122.667l191.36 235.547 176.64-235.547h163.556l-254.738 339.65 256.122 315.211zM353.38 725.134l447.755-596.935h-89.977l-447.648 596.935h89.87z" />
<glyph unicode="&#xe921;" glyph-name="phonecheck" horiz-adv-x="843" d="M429.603 403.108c0-114.238 92.608-206.846 206.846-206.846s206.846 92.608 206.846 206.846c0 114.238-92.608 206.846-206.846 206.846-114.187-0.123-206.723-92.659-206.846-206.846zM779.649 403.108c0-79.088-64.113-143.201-143.201-143.201s-143.201 64.113-143.201 143.201c0 79.088 64.113 143.201 143.201 143.201 79.051-0.088 143.113-64.15 143.201-143.201zM579.407 441.533c-12.486 12.060-32.334 11.887-44.609-0.388s-12.447-32.123-0.388-44.609l63.645-63.645c12.427-12.423 32.57-12.423 44.997 0l95.467 95.467c12.060 12.486 11.887 32.334-0.388 44.609s-32.123 12.447-44.609 0.388l-72.985-72.953-41.13 41.13zM365.958 68.972c0-17.575-14.247-31.822-31.822-31.822s-31.822 14.247-31.822 31.822c0 17.575 14.247 31.822 31.822 31.822s31.822-14.247 31.822-31.822zM159.112-58.317h350.047c87.835 0.096 159.016 71.277 159.112 159.112v31.822c0 17.575-14.247 31.822-31.822 31.822s-31.822-14.247-31.822-31.822v-31.822c-0.061-52.7-42.768-95.406-95.467-95.467h-350.047c-52.7 0.061-95.406 42.768-95.467 95.467v700.093c0.061 52.7 42.768 95.406 95.467 95.467h350.047c52.7-0.061 95.406-42.768 95.467-95.467v-127.29c0-17.575 14.247-31.822 31.822-31.822s31.822 14.247 31.822 31.822v127.29c-0.096 87.835-71.277 159.016-159.112 159.112h-350.047c-87.835-0.096-159.016-71.277-159.112-159.112v-700.093c0.096-87.835 71.277-159.016 159.112-159.112z" />
<glyph unicode="&#xe922;" glyph-name="twitter-x-empty" d="M85.333 755.2l298.667-448-341.333-362.667h170.667l256 277.333 213.333-277.333h341.333l-341.333 490.667 277.333 320h-149.333l-213.333-213.333-149.333 213.333h-362.667zM239.81 696.985h116.654l515.122-699.083h-116.654l-515.122 699.083z" />
<glyph unicode="&#xe923;" glyph-name="supertop" horiz-adv-x="5188" d="M1096.063 209.067c36.209 0 68.614 4.76 97.214 14.279s52.74 22.898 72.418 40.137c19.679 17.238 34.635 37.95 44.868 62.135s15.35 51.2 15.35 81.045c0 44.253-11.676 80.145-35.028 107.674s-60.218 49.528-110.596 65.994c-12.595 4.117-25.32 7.976-38.177 11.578s-24.402 7.847-34.635 12.736c-10.233 4.888-18.498 10.677-24.795 17.367s-9.446 15.18-9.446 25.471c0 14.923 6.297 27.015 18.892 36.277s28.862 13.893 48.804 13.893c15.743 0 32.011-3.216 48.804-9.648s33.585-16.338 50.378-29.717v0l61.398 118.094c-29.387 15.437-60.086 27.144-92.097 35.12s-62.71 11.964-92.097 11.964c-31.486 0-59.955-4.631-85.407-13.893s-46.967-22.255-64.547-38.979c-17.58-16.724-31.224-36.792-40.932-60.205s-14.562-49.528-14.562-78.344c0-28.816 4.592-52.615 13.775-71.397s21.253-34.348 36.209-46.697c14.956-12.35 32.011-22.255 51.165-29.717s38.702-14.279 58.643-20.454c16.793-5.66 31.093-10.806 42.9-15.437s21.384-9.648 28.731-15.051c7.347-5.403 12.595-11.321 15.743-17.753s4.723-14.022 4.723-22.77c0-14.408-6.166-27.272-18.498-38.593s-31.093-16.981-56.282-16.981c-22.040 0-44.343 4.888-66.908 14.665s-45.393 24.699-68.483 44.768v0l-66.121-121.954c64.022-43.739 133.554-65.608 208.597-65.608zM1615.862 209.067c87.637 0 152.577 20.84 194.821 62.521s63.366 107.803 63.366 198.368v0 337.303h-153.496v-316.462c0-16.981-0.656-34.348-1.968-52.101s-5.379-33.833-12.201-48.241c-6.822-14.408-17.186-26.115-31.093-35.12s-33.717-13.508-59.43-13.508c-25.714 0-45.655 4.503-59.824 13.508s-24.533 20.712-31.093 35.12c-6.56 14.408-10.495 30.488-11.807 48.241s-1.968 35.12-1.968 52.101v0 316.462h-154.283v-337.303c0-90.565 21.253-156.687 63.76-198.368s107.578-62.521 195.215-62.521zM2086.856 225.276v192.965h91.31c66.646 0 117.68 16.981 153.102 50.943s53.133 81.817 53.133 143.566c0 61.749-17.711 109.604-53.133 143.566s-86.456 50.943-153.102 50.943v0h-245.593v-581.982h154.283zM2138.021 540.194h-51.165v145.11h51.165c56.675 0 85.013-24.185 85.013-72.555s-28.338-72.555-85.013-72.555v0zM2738.11 225.276v128.129h-183.408v100.342h173.175v128.129h-173.175v97.254h183.408v128.129h-337.69v-581.982h337.69zM2937.535 225.276v223.839l147.198-223.839h192.066l-186.556 238.505c42.506 9.777 74.649 28.43 96.427 55.96s32.667 63.421 32.667 107.674c0 24.699-4.067 47.855-12.201 69.467s-20.204 40.651-36.209 57.118c-16.006 16.466-36.34 29.459-61.005 38.979s-53.527 14.279-86.587 14.279v0h-240.083v-581.982h154.283zM2966.66 547.141h-29.125v143.566h29.125c30.437 0 53.789-6.175 70.057-18.525s24.402-30.103 24.402-53.258c0-23.156-8.134-40.909-24.402-53.258s-39.62-18.525-70.057-18.525v0zM0 540.374l176.177 36.025c0 0 26.053-576.808 826.435-576.808 0.161 0.018-1.198 27.139-0.857 27.478-64.869 0-558.834 58.438-558.834 536.081l173.774-67.613-284.665 464.463-332.029-419.626zM4285.907 490.349c0 56.102-12.366 99.781-37.111 131.026-24.739 31.239-57.978 46.861-99.713 46.861-26.931 0-50.662-6.973-71.194-20.914-20.531-13.946-36.348-34.518-47.457-61.734-11.108-27.21-16.665-58.954-16.665-95.24 0-35.95 5.472-67.36 16.416-94.234 10.931-26.886 26.589-47.458 46.95-61.734 20.36-14.281 44.348-21.419 71.951-21.419 41.734 0 74.974 15.702 99.713 47.117 24.745 31.416 37.111 74.839 37.111 130.27v0.002zM4424.241 490.349c0-40.992-6.402-78.788-19.184-113.386-12.794-34.603-31.297-64.336-55.535-89.194-24.238-24.863-53.184-43.929-86.845-57.199-33.655-13.27-71.523-19.901-113.594-19.901-41.74 0-79.267 6.723-112.592 20.152-33.319 13.434-62.18 32.671-86.589 57.705-24.409 25.022-42.913 54.59-55.53 88.687-12.629 34.097-18.937 71.816-18.937 113.136 0 41.649 6.388 79.788 19.188 114.397 12.787 34.591 31.126 64.159 55.029 88.687 23.902 24.521 52.843 43.417 86.839 56.693 33.997 13.27 71.523 19.901 112.592 19.901 41.734 0 79.597-6.723 113.594-20.152 33.997-13.44 63.114-32.592 87.352-57.455 24.232-24.863 42.656-54.419 55.286-88.687 12.617-34.268 18.925-72.066 18.925-113.386v0zM4884.898 488.647c0 36.839-5.662 68.465-16.978 94.901-11.316 26.43-27.001 46.727-47.059 60.886-20.064 14.146-42.268 21.232-66.612 21.232-38.753 0-71.415-15.18-97.98-45.533-26.578-30.366-39.86-75.038-39.86-134.042 0-55.594 13.196-98.831 39.599-129.691 26.403-30.873 59.153-46.3 98.241-46.3 23.318 0 44.918 6.727 64.808 20.204 19.884 13.472 35.829 33.676 47.836 60.625 12.001 26.943 18.005 59.517 18.005 97.717v0zM4609.72 691.755v-16.881c26.397 32.401 53.827 56.188 82.29 71.368 28.457 15.173 60.695 22.766 96.699 22.766 43.208 0 82.981-11.089 119.332-33.249 36.345-22.179 65.063-54.58 86.147-97.21 21.096-42.643 31.629-93.113 31.629-151.436 0-42.97-6.078-82.457-18.247-118.435-12.181-35.99-28.899-66.17-50.157-90.558-21.265-24.387-46.374-43.15-75.347-56.275-28.98-13.125-60.099-19.691-93.357-19.691-40.115 0-73.804 8.014-101.066 24.041s-53.242 39.56-77.923 70.607v-120.694c0-61.393-22.465-92.086-67.383-92.086-26.41 0-43.898 7.933-52.465 23.794-8.573 15.86-12.859 38.967-12.859 69.32v513.598c0 26.603 5.829 46.467 17.489 59.604 11.653 13.125 27.604 19.691 47.836 19.691 19.884 0 36.084-6.732 48.608-20.204 12.517-13.477 18.776-32.834 18.776-58.070v-0.001zM3977.602 836.872h-164.663v-535.24c0-30.832-6.947-53.698-20.835-68.6-13.9-14.902-31.85-22.362-53.866-22.362-22.365 0-40.581 7.534-54.637 22.615-14.062 15.080-21.090 37.861-21.090 68.348v535.24h-164.663c-25.748 0-44.891 5.603-57.43 16.833-12.539 11.225-18.801 26.053-18.801 44.479 0 19.097 6.518 34.17 19.566 45.229 13.042 11.059 31.931 16.587 56.665 16.587h479.754c26.084 0 45.483-5.701 58.189-17.092s19.063-26.305 19.063-44.725c0-18.426-6.437-33.255-19.317-44.479-12.874-11.23-32.185-16.833-57.933-16.833l-0.001 0.001z" />
<glyph unicode="&#xe924;" glyph-name="pix" d="M746.757 217.801c-33.274 0-64.571 12.956-88.101 36.475l-127.209 127.213c-8.932 8.955-24.498 8.928-33.426 0l-127.674-127.678c-23.531-23.519-54.827-36.475-88.101-36.475h-25.070l161.116-161.112c50.315-50.315 131.896-50.315 182.215 0l161.573 161.577h-15.322zM282.244 667.766c33.274 0 64.571-12.956 88.101-36.475l127.674-127.697c9.195-9.199 24.209-9.233 33.427 0.011l127.209 127.221c23.53 23.519 54.827 36.475 88.101 36.475h15.322l-161.569 161.573c-50.323 50.319-131.904 50.319-182.219 0l-161.108-161.108 25.062 0.001zM895.724 533.658l-97.639 97.639c-2.149-0.861-4.478-1.398-6.935-1.398h-44.393c-22.951 0-45.419-9.309-61.636-25.539l-127.205-127.209c-11.904-11.904-27.547-17.86-43.174-17.86-15.642 0-31.273 5.956-43.174 17.849l-127.685 127.685c-16.218 16.233-38.685 25.539-61.636 25.539h-54.587c-2.328 0-4.504 0.549-6.558 1.322l-98.028-98.028c-50.319-50.319-50.319-131.896 0-182.215l98.024-98.024c2.058 0.773 4.234 1.322 6.562 1.322h54.587c22.951 0 45.419 9.305 61.636 25.535l127.674 127.674c23.077 23.058 63.305 23.066 86.359-0.011l127.205-127.198c16.218-16.229 38.685-25.539 61.636-25.539h44.393c2.458 0 4.786-0.537 6.935-1.398l97.639 97.639c50.315 50.319 50.315 131.896 0 182.215z" />
<glyph unicode="&#xe925;" glyph-name="boobs" d="M376.178 512h41.38l54.3-106.080c46.426-91.676 141.896-149.745 246.478-149.92l65.422-320h133.461l-71.474 349.44c52.753 26.289 95.471 68.47 121.849 120.32l6.869 13.44-117.106 57.28-6.869-13.6c-24.743-48.527-75.411-79.193-130.844-79.193s-106.101 30.666-130.844 79.193l-51.193 100.32 81.778 80c91.958 90.261 163.895 198.108 211.314 316.8h-142.13c-40.046-83.914-94.727-160.364-161.593-225.92l-96.171-94.080h-54.628c-18.066 0-32.711-14.327-32.711-32v-64c0-17.673 14.645-32 32.711-32zM84.583 850.823l92.521 90.51 130.802-127.958-92.521-90.51zM84.541 301.143l130.802 127.958 92.521-90.51-130.802-127.958zM0 640h196.267v-128h-196.267v128z" />
<glyph unicode="&#xe926;" glyph-name="bodytipe" d="M920.159 917.333l-75.501-31.39c36.42-87.658 54.905-180.283 54.905-275.301 0-101.593-82.37-183.975-184-183.975-101.617 0-184 82.383-184 184h-81.769c0-101.617-82.383-184-184-184-101.629 0-184 82.383-184 183.975 0 95.018 18.486 187.643 54.905 275.301l-75.526 31.39c-39.253-94.478-61.175-198.045-61.175-306.667-0.244-225.007 42.407-453.977 133.806-674.667l75.55 31.305c-58.819 141.999-96.992 289.542-115.122 440.521 46.307-39.217 106.131-62.94 171.537-62.94 72.312 0 137.754 28.949 185.68 75.82v-484.705h78.421v484.705c47.913-46.859 113.368-75.82 185.68-75.82 65.406 0 125.23 23.724 171.537 62.94-18.13-150.99-56.304-298.522-115.122-440.521l75.563-31.305c91.399 220.69 134.050 449.659 133.806 674.667 0 108.621-21.922 212.189-61.175 306.667z" />
<glyph unicode="&#xe927;" glyph-name="hair" d="M431.75 526.143c-33.605 30.345-28.088 153.104-50.784 175.8l3.26-176.803-109.091 6.27c-21.818-122.383 27.712-342.446 176.803-346.082l-9.53-185.204-103.699-41.379-97.43 229.718 29.593-224.327-46.52-8.527c-252.791 298.308-57.179 1126.523 299.311 989.093 356.49 137.43 552.102-690.785 299.311-989.093l-46.52 8.527 29.593 224.327-97.43-229.718-103.699 41.379-9.53 185.204c149.091 3.636 198.621 223.7 176.803 346.082l-109.091-6.27 3.26 176.803c-22.696-22.696-17.179-145.455-50.784-175.8h-183.825z" />
<glyph unicode="&#xe928;" glyph-name="world" d="M512 960c-282.304 0-512-229.696-512-512s229.696-512 512-512c282.304 0 512 229.696 512 512s-229.696 512-512 512zM51.744 448c0 78.208 19.616 151.904 54.176 216.48 6.496-3.328 12.928-5.632 19.072-6.24 43.136-4.32 34.496-77.632 68.672-99.2 34.24-21.568 47.744-50.368 47.744-50.368s4.32-109.12 47.424-130.688c43.072-21.568 60.32-64.672 47.36-112.064-12.928-47.424-12.928-107.808 17.248-146.624 30.176-38.784 112.128-34.464 94.88 0-17.248 34.496-43.136 38.816-33.888 60.384 9.184 21.568 68.384 56.064 81.312 90.528 12.928 34.496 103.424 81.92 133.632 133.664s-64.672 81.952-115.2 77.6c-50.432-4.288-78.816 30.176-121.952 76.416s-60.384 9.824-107.744 1.184c-47.36-8.672-64.608 30.144-86.176 81.888s38.816 17.248 56.064 74.048c17.248 56.8 56 12.192 89.248 3.552s52.992-4.288 65.952 43.136c12.96 47.424 90.56 34.464 103.488 64.672s-77.632-4.32-150.944 30.176c-12.064 5.696-17.696 12.384-18.944 19.488 52.32 20.736 109.184 32.256 168.8 32.256 156.736 0 295.328-78.816 378.496-198.816-7.488-13.28-16.928-22.944-27.872-18.112-27.392 12.096-20.64-26.4-48.416-17.152-27.872 9.28-83.424 4.64-97.376-37.056-13.888-41.76-24.864-60.64 11.136-96.992s39.552-54.176 39.552-77.344c0.064-23.168 19.328-31.36 54.944-24.224s65.952 17.856 64.864-13.888c-1.056-31.744-30.624-36.704-7.424-59.872 23.136-23.2 54.24-56-9.44-77.056-63.616-20.992-69.696-46.336-63.264-87.68 6.304-40.64-20.256-54.816 21.76-85.376-82.624-78.56-194.176-127.008-316.928-127.008-253.824 0-460.256 206.496-460.256 460.288z" />
</font>
</defs>
</svg>
